<svg width="301" height="150" viewBox="0 0 301 150" fill="none" xmlns="http://www.w3.org/2000/svg">
<path d="M52.6186 108.843L52.4506 110.401C52.4197 110.688 52.3948 110.975 52.3758 111.263C52.3702 111.54 52.369 111.775 52.3723 111.969C52.368 112.234 52.3777 112.537 52.4015 112.878C52.4266 113.206 52.4495 113.499 52.4704 113.755C52.5032 114.012 52.548 114.27 52.6047 114.53C52.6615 114.79 52.7195 115.037 52.7789 115.273C52.8476 115.534 52.9217 115.802 53.0011 116.076C53.0925 116.352 53.1804 116.603 53.265 116.829C53.3897 117.132 53.501 117.392 53.5988 117.608C53.6979 117.811 53.8124 118.041 53.9423 118.297C54.0935 118.578 54.23 118.829 54.3518 119.047C54.4855 119.267 54.6192 119.486 54.753 119.706C54.9521 119.993 55.1352 120.26 55.3023 120.508C55.4826 120.744 55.6569 120.98 55.8253 121.216C55.9321 121.348 55.956 121.52 55.8969 121.731C55.8511 121.931 55.7691 122.073 55.6511 122.157C55.5198 122.252 55.371 122.284 55.2047 122.254C55.0384 122.224 54.8945 122.155 54.7732 122.045C54.5834 121.783 54.4104 121.535 54.254 121.301C54.0989 121.055 53.9297 120.771 53.7464 120.449C53.5965 120.156 53.4405 119.861 53.2786 119.566C53.118 119.259 52.9687 118.959 52.8307 118.666C52.7047 118.375 52.59 118.091 52.4866 117.814C52.3846 117.526 52.2838 117.225 52.1843 116.912C52.0916 116.649 52.0049 116.386 51.9242 116.124C51.8448 115.849 51.7674 115.557 51.6918 115.247C51.6619 115.075 51.6321 114.903 51.6022 114.73C51.5737 114.546 51.5451 114.362 51.5165 114.178C51.4613 114.353 51.4067 114.522 51.3528 114.685C51.2988 114.849 51.2329 115.011 51.155 115.171C51.0271 115.46 50.8938 115.741 50.7551 116.016C50.6297 116.281 50.4997 116.532 50.3649 116.771C50.213 117.057 50.057 117.324 49.897 117.573C49.749 117.823 49.5757 118.082 49.3772 118.35C49.1774 118.631 48.9729 118.899 48.7638 119.154C48.5665 119.411 48.3574 119.666 48.1362 119.92C47.8885 120.195 47.6627 120.437 47.4587 120.644C47.2546 120.852 47.038 121.064 46.8087 121.281C46.6787 121.364 46.5293 121.402 46.3604 121.396C46.1902 121.402 46.0444 121.35 45.9231 121.241C45.8136 121.132 45.744 120.992 45.7142 120.82C45.6976 120.637 45.7695 120.475 45.9298 120.336C46.1433 120.153 46.3454 119.963 46.5361 119.767C46.7402 119.559 46.972 119.318 47.2317 119.044C47.4237 118.835 47.6025 118.637 47.7681 118.449C47.9469 118.251 48.1402 118.03 48.3481 117.787C48.5308 117.553 48.6929 117.341 48.8345 117.151C48.9761 116.961 49.1348 116.724 49.3107 116.441C49.4416 116.238 49.5751 116.01 49.7111 115.759C49.8592 115.51 49.9886 115.264 50.0995 115.022C50.221 114.794 50.3312 114.558 50.43 114.315C50.5289 114.072 50.6158 113.827 50.6907 113.582C50.7802 113.314 50.859 113.032 50.9271 112.738C51.0085 112.432 51.0753 112.15 51.1275 111.89C51.1721 111.701 51.2164 111.458 51.2606 111.161C51.3167 110.865 51.3603 110.574 51.3912 110.287L51.5592 108.729L47.9858 108.346C47.8302 108.329 47.7103 108.262 47.6261 108.144C47.5539 108.028 47.5249 107.904 47.5391 107.773C47.5532 107.641 47.608 107.527 47.7034 107.428C47.8107 107.331 47.9422 107.291 48.0979 107.307L56.3759 108.195C56.5435 108.213 56.6634 108.281 56.7356 108.397C56.8078 108.513 56.8368 108.637 56.8226 108.769C56.8085 108.9 56.7537 109.015 56.6583 109.113C56.5629 109.212 56.4314 109.252 56.2638 109.234L52.6186 108.843ZM58.7453 115.026L55.3874 114.665C55.2079 114.646 55.0753 114.584 54.9899 114.478C54.9177 114.361 54.8886 114.237 54.9028 114.106C54.917 113.975 54.9711 113.866 55.0652 113.779C55.1726 113.682 55.316 113.643 55.4956 113.663L58.8535 114.023L59.4773 108.238C59.4992 108.035 59.5679 107.904 59.6834 107.844C59.8121 107.773 59.9423 107.745 60.074 107.759C60.2176 107.774 60.3388 107.829 60.4376 107.925C60.5495 108.009 60.5946 108.153 60.5727 108.356L58.9116 123.757C58.891 123.948 58.8164 124.079 58.6876 124.15C58.5709 124.222 58.4407 124.25 58.297 124.235C58.1654 124.221 58.0442 124.165 57.9335 124.069C57.8347 123.974 57.7957 123.831 57.8163 123.64L58.7453 115.026Z" fill="#FFB347"/>
<path d="M63.5986 113.336C63.6282 113.062 63.6929 112.742 63.7927 112.379C63.9057 112.004 63.9946 111.742 64.0592 111.592C64.1371 111.431 64.2487 111.238 64.3942 111.012C64.5516 110.787 64.7105 110.605 64.8709 110.465C65.0206 110.312 65.1943 110.162 65.3919 110.014C65.6027 109.856 65.7971 109.737 65.975 109.66C66.1024 109.601 66.2917 109.531 66.5427 109.449C66.7937 109.367 67.0175 109.313 67.2142 109.286C67.3883 109.244 67.6328 109.222 67.948 109.219C68.2644 109.205 68.5183 109.208 68.7099 109.229C68.9134 109.251 69.1682 109.302 69.4743 109.383C69.7816 109.452 70.0099 109.525 70.1591 109.602C70.3455 109.67 70.5526 109.771 70.7804 109.904C71.0083 110.037 71.1782 110.146 71.2902 110.23C71.4475 110.344 71.6062 110.5 71.7665 110.698C71.94 110.886 72.0776 111.069 72.1793 111.249C72.3182 111.421 72.4346 111.633 72.5286 111.885C72.6345 112.138 72.7084 112.351 72.7502 112.524C72.7933 112.686 72.8242 112.961 72.8428 113.35C72.8747 113.727 72.8759 114.054 72.8463 114.328C72.8167 114.603 72.746 114.921 72.6342 115.284C72.5358 115.635 72.4476 115.892 72.3697 116.052C72.2918 116.213 72.1735 116.412 72.0148 116.648C71.8693 116.874 71.7104 117.057 71.538 117.195C71.4016 117.337 71.2279 117.488 71.0171 117.646C70.8195 117.794 70.6317 117.907 70.4538 117.985C70.3264 118.043 70.1372 118.114 69.8862 118.195C69.6352 118.277 69.4107 118.338 69.2127 118.377C69.0519 118.408 68.8133 118.43 68.4969 118.445C68.1805 118.459 67.9206 118.455 67.7171 118.434C67.5255 118.413 67.2767 118.362 66.9706 118.281C66.6645 118.2 66.4303 118.127 66.2678 118.061C66.0827 117.981 65.8762 117.874 65.6484 117.741C65.4206 117.608 65.2507 117.499 65.1387 117.414C64.9814 117.301 64.816 117.15 64.6425 116.963C64.4822 116.764 64.3446 116.58 64.2297 116.411C64.1028 116.24 63.9864 116.029 63.8804 115.776C63.7878 115.512 63.7205 115.294 63.6787 115.12C63.6488 114.948 63.6173 114.679 63.5841 114.313C63.5642 113.936 63.569 113.611 63.5986 113.336ZM64.7299 113.457C64.7028 113.708 64.6938 113.961 64.7026 114.215C64.7248 114.459 64.7508 114.667 64.7806 114.84C64.8036 114.963 64.8327 115.087 64.8677 115.211C64.9147 115.337 64.983 115.489 65.0727 115.668C65.1624 115.847 65.238 115.988 65.2996 116.091C65.3731 116.196 65.4925 116.323 65.6579 116.474C65.7887 116.608 65.9274 116.726 66.074 116.826C66.2339 116.916 66.4004 117 66.5735 117.079C66.712 117.142 66.8924 117.21 67.1147 117.282C67.3503 117.344 67.5878 117.387 67.8272 117.413C68.0666 117.439 68.302 117.446 68.5333 117.434C68.7778 117.412 68.9745 117.385 69.1233 117.353C69.2974 117.311 69.4661 117.263 69.6294 117.208C69.806 117.142 69.9786 117.058 70.1471 116.955C70.3408 116.843 70.4787 116.743 70.5609 116.655C70.655 116.569 70.7649 116.448 70.8907 116.292C71.0164 116.137 71.1097 116.002 71.1705 115.887C71.2432 115.775 71.304 115.66 71.3527 115.545C71.4187 115.383 71.4824 115.184 71.5441 114.949C71.6071 114.702 71.6521 114.454 71.6791 114.203C71.7048 113.964 71.7133 113.717 71.7044 113.463C71.6968 113.196 71.6775 112.983 71.6463 112.823C71.6246 112.687 71.5902 112.557 71.5432 112.431C71.5082 112.307 71.4459 112.155 71.3561 111.976C71.2664 111.798 71.1842 111.662 71.1094 111.569C71.0479 111.466 70.9344 111.339 70.769 111.189C70.6263 111.053 70.4756 110.934 70.317 110.832C70.1704 110.732 70.0165 110.643 69.8554 110.565C69.7181 110.49 69.5318 110.422 69.2962 110.36C69.0726 110.3 68.8411 110.257 68.6017 110.232C68.3623 110.206 68.1209 110.198 67.8776 110.208C67.6463 110.22 67.4556 110.248 67.3055 110.292C67.1195 110.332 66.9382 110.385 66.7616 110.451C66.597 110.518 66.4364 110.603 66.2799 110.707C66.0861 110.819 65.9422 110.918 65.8481 111.005C65.7673 111.081 65.664 111.197 65.5382 111.352C65.4124 111.508 65.3132 111.642 65.2405 111.755C65.1797 111.869 65.1243 111.99 65.0742 112.118C65.0096 112.268 64.9392 112.471 64.8629 112.729C64.8 112.976 64.7556 113.219 64.7299 113.457ZM75.0754 125.491C75.0548 125.682 74.9801 125.813 74.8514 125.884C74.7347 125.956 74.6045 125.984 74.4608 125.969C74.3291 125.954 74.2079 125.899 74.0972 125.803C73.9985 125.708 73.9595 125.565 73.9801 125.374L75.6411 109.972C75.663 109.769 75.7317 109.638 75.8471 109.578C75.9759 109.507 76.1061 109.479 76.2378 109.493C76.3814 109.508 76.5026 109.563 76.6013 109.659C76.7133 109.743 76.7584 109.887 76.7365 110.09L75.0754 125.491ZM64.2666 121.795C64.5299 121.824 64.8957 121.857 65.3639 121.895C65.832 121.933 66.1864 121.959 66.4272 121.973C66.6679 121.987 67.0229 122.007 67.4924 122.033C67.9751 122.048 68.3794 122.061 68.7051 122.072C69.116 122.08 69.5329 122.089 69.9557 122.098C70.3919 122.096 70.7801 122.09 71.1204 122.078C71.4248 122.062 71.7412 122.048 72.0696 122.035C72.3993 122.01 72.6804 121.985 72.913 121.962C73.0113 121.948 73.1105 121.983 73.2105 122.066C73.3238 122.139 73.384 122.254 73.3913 122.412C73.3997 122.558 73.3683 122.681 73.2968 122.782C73.2267 122.871 73.1238 122.927 72.9883 122.948C72.7916 122.976 72.5404 123.003 72.2347 123.031C71.9422 123.047 71.6743 123.061 71.4311 123.071C71.1386 123.088 70.7803 123.098 70.3562 123.101C69.9333 123.092 69.5278 123.09 69.1395 123.097C68.7513 123.104 68.2979 123.097 67.7793 123.078C67.2739 123.048 66.8464 123.026 66.4966 123.013C66.22 122.995 65.7685 122.971 65.1422 122.94C64.5291 122.898 64.1267 122.867 63.9352 122.847L62.6244 122.706C62.4448 122.687 62.3129 122.618 62.2288 122.501C62.1459 122.371 62.1115 122.24 62.1257 122.109C62.1398 121.978 62.2006 121.864 62.3079 121.766C62.4166 121.657 62.5607 121.612 62.7403 121.632L64.2666 121.795Z" fill="#FFB347"/>
<path d="M89.0261 113.691C89.1488 113.788 89.2535 113.884 89.3403 113.978C89.439 114.073 89.543 114.175 89.6525 114.283C89.7832 114.418 89.93 114.573 90.0929 114.747C90.2677 114.923 90.4251 115.091 90.5653 115.251C90.7175 115.412 90.8636 115.573 91.0038 115.733C91.144 115.892 91.2828 116.064 91.4204 116.248C91.582 116.435 91.7162 116.594 91.823 116.726C91.9298 116.858 92.0407 117.009 92.1557 117.179C92.2719 117.336 92.3828 117.487 92.4883 117.631C92.5939 117.775 92.6988 117.925 92.8031 118.081C92.8859 118.211 92.9635 118.334 93.0357 118.45C93.1212 118.556 93.1994 118.673 93.2703 118.802C93.2797 118.827 93.2899 118.9 93.301 119.022C93.3253 119.134 93.3336 119.225 93.3259 119.297C93.3156 119.392 93.2694 119.484 93.1872 119.572C93.1064 119.648 93.0527 119.696 93.0262 119.718C92.9612 119.759 92.8915 119.788 92.8171 119.804C92.7559 119.809 92.6954 119.809 92.6356 119.802C92.5757 119.796 92.4945 119.763 92.3919 119.704C92.2906 119.633 92.2133 119.564 92.1598 119.498C92.0889 119.369 92.018 119.241 91.9471 119.113C91.8761 118.984 91.7999 118.849 91.7183 118.708C91.638 118.554 91.545 118.405 91.4395 118.261C91.3459 118.118 91.2577 117.982 91.1748 117.852C91.0812 117.709 90.9823 117.56 90.878 117.404C90.7738 117.248 90.6582 117.084 90.5313 116.914C90.4163 116.744 90.2948 116.58 90.1666 116.422C90.0503 116.264 89.9328 116.119 89.814 115.985C89.6965 115.84 89.5837 115.707 89.4755 115.587C89.3674 115.466 89.2426 115.332 89.1012 115.184C89.0251 115.104 88.9371 115.022 88.837 114.939C88.7503 114.845 88.6629 114.757 88.5749 114.675C88.5141 114.789 88.4533 114.903 88.3926 115.018C88.3451 115.121 88.2856 115.224 88.2141 115.325C88.0435 115.56 87.8655 115.806 87.6802 116.064C87.495 116.322 87.3269 116.534 87.1759 116.699C87.0116 116.874 86.8275 117.066 86.6235 117.273C86.4194 117.481 86.2426 117.661 86.0929 117.814C85.8794 117.997 85.6726 118.174 85.4725 118.346C85.2723 118.517 85.0794 118.678 84.8938 118.827C84.8168 118.867 84.7285 118.9 84.6289 118.925C84.5412 118.952 84.4794 118.964 84.4435 118.96C84.3956 118.955 84.3244 118.941 84.2299 118.919C84.1487 118.886 84.0808 118.842 84.0261 118.788C83.982 118.747 83.9459 118.689 83.9178 118.614C83.8909 118.526 83.8813 118.447 83.889 118.375C83.8954 118.315 83.9218 118.24 83.968 118.148C84.0142 118.056 84.0632 117.995 84.1149 117.965C84.2992 117.827 84.4842 117.684 84.6698 117.535C84.8568 117.374 85.0437 117.213 85.2306 117.052C85.3777 116.922 85.5394 116.771 85.7156 116.596C85.9051 116.411 86.0807 116.243 86.2424 116.091C86.3959 115.902 86.5502 115.708 86.705 115.507C86.8718 115.307 87.0128 115.123 87.1279 114.954C87.2455 114.762 87.3651 114.551 87.4866 114.323C87.6201 114.095 87.7337 113.884 87.8275 113.689C87.9079 113.504 87.991 113.296 88.0766 113.063C88.1622 112.831 88.2326 112.627 88.2878 112.452C88.3537 112.29 88.4149 112.115 88.4715 111.928C88.5293 111.729 88.5732 111.547 88.6032 111.381C88.6216 111.322 88.6526 111.259 88.6962 111.192C88.7412 111.112 88.7895 111.057 88.8412 111.026C88.8665 111.017 88.9169 110.998 88.9926 110.97C89.0803 110.943 89.1534 110.939 89.212 110.957C89.2705 110.975 89.3344 111 89.4037 111.032C89.4729 111.064 89.5283 111.112 89.5697 111.177C89.6018 111.216 89.6313 111.28 89.6582 111.367C89.6851 111.455 89.6874 111.545 89.6651 111.64C89.639 111.77 89.597 111.934 89.5392 112.133C89.4947 112.322 89.4435 112.516 89.3857 112.715C89.3317 112.878 89.2718 113.041 89.2059 113.203C89.152 113.366 89.092 113.529 89.0261 113.691ZM86.6057 122.996L95.2608 123.925C95.4164 123.941 95.5393 123.924 95.6296 123.874C95.7211 123.811 95.7739 123.714 95.7881 123.583L95.8943 122.598C95.9072 122.478 95.875 122.384 95.7976 122.316C95.7202 122.247 95.6038 122.204 95.4481 122.187L86.1107 121.186C85.9311 121.167 85.7986 121.104 85.7131 120.998C85.629 120.881 85.594 120.756 85.6081 120.625C85.6223 120.493 85.6824 120.385 85.7885 120.3C85.8945 120.215 86.0374 120.182 86.2169 120.201L96.1828 121.27C96.4941 121.303 96.7204 121.394 96.8619 121.542C97.0166 121.679 97.0773 121.903 97.0438 122.214L96.8294 124.202C96.7972 124.5 96.6842 124.705 96.4905 124.817C96.31 124.919 96.0642 124.953 95.7529 124.919L87.0619 123.987C86.9183 123.972 86.7947 123.995 86.6912 124.056C86.601 124.107 86.5481 124.204 86.5327 124.347L86.4071 125.511C86.3878 125.69 86.4294 125.809 86.532 125.869C86.6453 125.941 86.7977 125.988 86.9892 126.008L96.5242 127.031C96.7157 127.052 96.8483 127.114 96.9218 127.219C96.994 127.335 97.023 127.459 97.0088 127.59C96.9947 127.722 96.9405 127.831 96.8464 127.917C96.751 128.016 96.6076 128.055 96.416 128.034L86.4681 126.967C86.1089 126.928 85.8101 126.836 85.5716 126.69C85.3331 126.543 85.2357 126.267 85.2795 125.861L85.5093 123.73C85.5402 123.443 85.6466 123.243 85.8283 123.13C86.0233 123.006 86.2825 122.961 86.6057 122.996ZM98.1041 112.382L97.262 120.19C97.2414 120.381 97.1668 120.512 97.038 120.583C96.9213 120.655 96.7911 120.683 96.6474 120.668C96.5157 120.653 96.3946 120.598 96.2839 120.502C96.1851 120.407 96.1461 120.264 96.1667 120.073L97.0088 112.264C97.0307 112.061 97.0994 111.93 97.2148 111.87C97.3435 111.799 97.4737 111.771 97.6054 111.785C97.7491 111.8 97.8703 111.856 97.969 111.951C98.081 112.035 98.126 112.179 98.1041 112.382Z" fill="#FFB347"/>
<path d="M110.526 120.345L112.843 120.593L113.548 114.057C113.57 113.854 113.646 113.711 113.776 113.628C113.918 113.547 114.048 113.513 114.168 113.526C114.288 113.538 114.396 113.598 114.494 113.705C114.603 113.814 114.647 113.969 114.625 114.172L112.968 129.538C112.947 129.729 112.872 129.866 112.742 129.948C112.623 130.044 112.503 130.086 112.383 130.073C112.264 130.06 112.144 129.993 112.024 129.871C111.914 129.763 111.87 129.613 111.891 129.422L112.733 121.614L110.416 121.366L109.622 128.726C109.602 128.917 109.526 129.054 109.396 129.137C109.278 129.221 109.16 129.256 109.04 129.243C108.92 129.23 108.812 129.17 108.714 129.063C108.617 128.956 108.578 128.807 108.599 128.616L110.185 113.913C110.206 113.71 110.276 113.573 110.393 113.501C110.523 113.418 110.641 113.383 110.749 113.394C110.857 113.406 110.966 113.466 111.075 113.574C111.186 113.671 111.23 113.82 111.208 114.023L110.526 120.345ZM101.697 113.112L108.485 113.84C108.641 113.856 108.755 113.923 108.827 114.039C108.899 114.156 108.928 114.28 108.914 114.411C108.901 114.531 108.846 114.645 108.75 114.756C108.654 114.854 108.529 114.895 108.373 114.878L101.585 114.15C101.43 114.134 101.316 114.067 101.244 113.951C101.173 113.822 101.144 113.698 101.157 113.579C101.171 113.448 101.226 113.333 101.321 113.234C101.416 113.136 101.542 113.095 101.697 113.112ZM104.653 125.965L106.25 116.372C106.292 116.207 106.377 116.095 106.504 116.037C106.645 115.967 106.78 115.952 106.909 115.99C107.028 116.014 107.13 116.074 107.217 116.167C107.316 116.263 107.356 116.394 107.338 116.561L105.742 125.973C105.827 125.97 105.905 125.972 105.977 125.98C106.05 125.976 106.123 125.971 106.196 125.967C106.451 125.958 106.731 125.946 107.036 125.931C107.352 125.916 107.645 125.899 107.913 125.88C107.998 125.877 108.085 125.91 108.175 125.98C108.276 126.051 108.325 126.159 108.321 126.304C108.331 126.438 108.3 126.561 108.227 126.674C108.156 126.775 108.071 126.833 107.972 126.846C107.74 126.87 107.483 126.89 107.203 126.909C106.934 126.928 106.666 126.942 106.399 126.949C106.083 126.964 105.749 126.97 105.398 126.969C105.059 126.968 104.744 126.965 104.455 126.958C104.177 126.952 103.881 126.945 103.567 126.935C103.253 126.926 102.939 126.916 102.626 126.907C102.289 126.883 101.904 126.859 101.471 126.837C101.049 126.816 100.76 126.797 100.605 126.78L99.9583 126.711C99.8027 126.694 99.6828 126.627 99.5986 126.509C99.5264 126.393 99.4974 126.269 99.5115 126.138C99.5257 126.006 99.5805 125.892 99.6758 125.793C99.7832 125.696 99.9147 125.656 100.07 125.672L100.681 125.738C100.824 125.753 101.01 125.773 101.237 125.798C101.466 125.81 101.683 125.821 101.888 125.831L102.314 116.149C102.335 115.958 102.398 115.826 102.503 115.752C102.609 115.667 102.74 115.627 102.897 115.632C103.043 115.623 103.172 115.667 103.282 115.764C103.406 115.849 103.465 115.976 103.459 116.145L102.933 125.907C103.139 125.905 103.339 125.908 103.532 125.917C103.736 125.927 103.917 125.934 104.074 125.939C104.171 125.937 104.268 125.942 104.363 125.952C104.459 125.962 104.555 125.966 104.653 125.965Z" fill="#FFB347"/>
<path d="M118.625 126.63L127.28 127.559C127.435 127.575 127.558 127.558 127.649 127.508C127.74 127.445 127.793 127.348 127.807 127.217L127.888 126.465C127.901 126.345 127.869 126.251 127.791 126.182C127.714 126.114 127.598 126.071 127.442 126.054L118.105 125.053C117.913 125.032 117.775 124.969 117.689 124.863C117.617 124.747 117.588 124.623 117.602 124.492C117.616 124.36 117.67 124.251 117.764 124.165C117.87 124.08 118.019 124.047 118.211 124.068L128.177 125.137C128.488 125.17 128.714 125.261 128.856 125.409C129.01 125.546 129.071 125.77 129.038 126.081L128.846 127.854C128.814 128.152 128.701 128.357 128.508 128.469C128.327 128.571 128.081 128.605 127.77 128.571L119.079 127.639C118.935 127.624 118.812 127.647 118.708 127.708C118.618 127.759 118.565 127.856 118.55 127.999L118.447 128.948C118.428 129.127 118.47 129.246 118.572 129.306C118.686 129.378 118.832 129.424 119.012 129.443L128.564 130.468C128.756 130.489 128.888 130.551 128.962 130.656C129.034 130.772 129.063 130.896 129.049 131.027C129.035 131.159 128.981 131.268 128.887 131.354C128.791 131.453 128.648 131.492 128.456 131.471L118.508 130.404C118.149 130.365 117.844 130.272 117.594 130.125C117.355 129.978 117.258 129.702 117.302 129.296L117.51 127.362C117.541 127.076 117.654 126.876 117.847 126.764C118.042 126.64 118.301 126.596 118.625 126.63ZM130.465 122.955C130.644 122.974 130.776 123.043 130.86 123.16C130.946 123.266 130.981 123.385 130.967 123.516C130.953 123.647 130.892 123.762 130.785 123.859C130.679 123.944 130.536 123.977 130.356 123.958L116.943 122.519C116.763 122.499 116.631 122.437 116.545 122.331C116.473 122.215 116.444 122.091 116.458 121.959C116.472 121.828 116.527 121.719 116.621 121.633C116.728 121.536 116.871 121.497 117.051 121.516L130.465 122.955ZM119.662 117.013L128.317 117.942C128.473 117.959 128.596 117.942 128.686 117.891C128.777 117.828 128.83 117.731 128.844 117.6L128.91 116.991C128.923 116.872 128.891 116.778 128.813 116.709C128.736 116.64 128.619 116.597 128.464 116.581L119.126 115.579C118.935 115.559 118.796 115.495 118.711 115.39C118.639 115.273 118.61 115.149 118.624 115.018C118.638 114.887 118.692 114.778 118.786 114.691C118.893 114.594 119.043 114.556 119.234 114.576L129.2 115.645C129.512 115.679 129.738 115.769 129.879 115.917C130.034 116.055 130.095 116.279 130.061 116.589L129.884 118.237C129.851 118.535 129.738 118.74 129.545 118.853C129.364 118.954 129.118 118.988 128.807 118.955L120.116 118.022C119.972 118.007 119.849 118.03 119.745 118.091C119.655 118.142 119.602 118.239 119.587 118.382L119.512 119.081C119.492 119.26 119.533 119.385 119.635 119.456C119.749 119.517 119.896 119.557 120.076 119.576L129.449 120.581C129.641 120.602 129.773 120.664 129.847 120.769C129.92 120.873 129.95 120.991 129.936 121.123C129.921 121.254 129.867 121.369 129.771 121.467C129.677 121.554 129.534 121.587 129.343 121.566L119.574 120.518C119.215 120.48 118.911 120.387 118.66 120.239C118.422 120.093 118.324 119.817 118.368 119.411L118.548 117.745C118.578 117.459 118.691 117.259 118.885 117.147C119.08 117.023 119.339 116.979 119.662 117.013Z" fill="#FFB347"/>
<path d="M144.145 128.317L144.396 125.989L138.201 125.324C138.021 125.305 137.889 125.237 137.805 125.119C137.721 125.001 137.685 124.883 137.698 124.763C137.712 124.632 137.772 124.524 137.878 124.438C137.985 124.353 138.127 124.32 138.307 124.34L151.828 125.79C152.008 125.809 152.14 125.872 152.226 125.978C152.311 126.083 152.347 126.202 152.333 126.333C152.32 126.453 152.26 126.561 152.152 126.658C152.045 126.755 151.902 126.794 151.722 126.775L145.527 126.11L145.276 128.439L149.262 128.866C149.43 128.884 149.578 128.918 149.705 128.968C149.834 129.006 149.933 129.047 150.001 129.09C150.09 129.16 150.158 129.264 150.204 129.402C150.262 129.529 150.283 129.676 150.265 129.843L149.871 133.497C149.85 133.688 149.775 133.824 149.645 133.907C149.515 133.99 149.39 134.025 149.27 134.012C149.151 133.999 149.036 133.938 148.927 133.83C148.817 133.722 148.773 133.572 148.793 133.381L149.116 130.39C149.134 130.223 149.106 130.087 149.033 129.983C148.971 129.88 148.827 129.816 148.599 129.791L139.208 128.784C139.04 128.766 138.914 128.704 138.828 128.598C138.743 128.493 138.708 128.368 138.723 128.225C138.739 128.081 138.799 127.973 138.904 127.9C139.01 127.815 139.147 127.781 139.314 127.799L144.145 128.317ZM142.872 116.876L148.672 117.499C148.839 117.517 148.959 117.584 149.032 117.7C149.117 117.806 149.153 117.925 149.138 118.056C149.126 118.175 149.065 118.284 148.958 118.381C148.863 118.479 148.731 118.519 148.564 118.501L142.764 117.879C142.596 117.861 142.47 117.793 142.386 117.676C142.314 117.559 142.284 117.441 142.297 117.322C142.311 117.191 142.365 117.082 142.459 116.995C142.567 116.898 142.704 116.858 142.872 116.876ZM144.99 120.31L139.854 119.759C139.687 119.741 139.56 119.679 139.475 119.574C139.403 119.457 139.373 119.339 139.386 119.22C139.4 119.088 139.454 118.98 139.548 118.893C139.654 118.808 139.791 118.774 139.959 118.792L151.235 120.002C151.403 120.02 151.524 120.081 151.597 120.186C151.671 120.29 151.7 120.408 151.686 120.539C151.673 120.659 151.619 120.768 151.524 120.866C151.43 120.953 151.299 120.987 151.131 120.969L146.049 120.424C146.058 120.461 146.066 120.498 146.074 120.535C146.094 120.573 146.113 120.618 146.132 120.668C146.171 120.757 146.216 120.846 146.267 120.936C146.331 121.016 146.416 121.121 146.523 121.254C146.622 121.349 146.715 121.437 146.803 121.519C146.891 121.601 147.02 121.699 147.189 121.814C147.325 121.901 147.485 121.991 147.669 122.083C147.854 122.163 148.015 122.241 148.152 122.316C148.336 122.408 148.532 122.496 148.742 122.578C148.964 122.651 149.168 122.721 149.355 122.789C149.553 122.859 149.746 122.922 149.934 122.978C150.133 123.036 150.328 123.087 150.517 123.131C150.692 123.186 150.875 123.236 151.064 123.28C151.252 123.325 151.406 123.365 151.523 123.402C151.592 123.434 151.643 123.463 151.677 123.491C151.71 123.519 151.742 123.559 151.773 123.61C151.794 123.637 151.805 123.704 151.805 123.813C151.818 123.923 151.809 124.007 151.778 124.064C151.755 124.17 151.709 124.256 151.642 124.321C151.575 124.374 151.53 124.405 151.504 124.415C151.455 124.422 151.387 124.432 151.301 124.447C151.228 124.451 151.156 124.444 151.086 124.424C150.944 124.385 150.797 124.351 150.642 124.322C150.489 124.282 150.331 124.234 150.167 124.181C150.003 124.127 149.822 124.071 149.622 124.014C149.424 123.944 149.243 123.876 149.081 123.811C148.918 123.745 148.733 123.671 148.524 123.588C148.315 123.505 148.124 123.424 147.95 123.345C147.765 123.265 147.581 123.179 147.397 123.086C147.215 122.982 147.027 122.866 146.835 122.736C146.677 122.635 146.524 122.534 146.378 122.434C146.231 122.333 146.108 122.236 146.01 122.141C145.91 122.057 145.8 121.949 145.681 121.815C145.575 121.683 145.479 121.558 145.395 121.441C145.339 121.507 145.276 121.585 145.206 121.674C145.137 121.751 145.057 121.827 144.964 121.901C144.899 121.943 144.802 121.999 144.673 122.07C144.556 122.142 144.428 122.212 144.287 122.282C144.121 122.361 143.962 122.428 143.811 122.484C143.66 122.541 143.49 122.595 143.303 122.647C143.104 122.698 142.886 122.747 142.651 122.795C142.428 122.843 142.229 122.888 142.055 122.93C141.857 122.969 141.636 123.006 141.39 123.04C141.156 123.075 140.935 123.106 140.726 123.132C140.493 123.155 140.236 123.182 139.954 123.212C139.686 123.231 139.466 123.244 139.296 123.25C139.211 123.253 139.133 123.245 139.063 123.225C139.006 123.195 138.942 123.164 138.873 123.132C138.85 123.118 138.818 123.078 138.777 123.013C138.735 122.948 138.713 122.879 138.708 122.807C138.704 122.734 138.713 122.656 138.733 122.574C138.766 122.493 138.79 122.441 138.805 122.418C138.859 122.364 138.905 122.326 138.944 122.306C138.982 122.286 139.02 122.272 139.057 122.264C139.253 122.249 139.472 122.236 139.716 122.226C139.972 122.205 140.18 122.185 140.34 122.166C140.511 122.148 140.714 122.122 140.948 122.087C141.195 122.041 141.417 122.004 141.613 121.977C141.811 121.938 142.027 121.9 142.261 121.865C142.496 121.818 142.695 121.773 142.857 121.73C143.068 121.68 143.262 121.628 143.437 121.575C143.613 121.509 143.766 121.441 143.895 121.37C144.022 121.311 144.137 121.257 144.239 121.208C144.343 121.146 144.442 121.073 144.536 120.986C144.603 120.921 144.666 120.849 144.722 120.771C144.793 120.681 144.85 120.597 144.895 120.517C144.924 120.472 144.941 120.432 144.944 120.396C144.96 120.361 144.975 120.333 144.99 120.31Z" fill="#FFB347"/>
<path d="M166.715 126.228L168.618 126.432C168.798 126.451 168.924 126.519 168.996 126.635C169.082 126.741 169.117 126.86 169.103 126.991C169.089 127.122 169.028 127.237 168.921 127.334C168.827 127.42 168.69 127.454 168.51 127.435L166.607 127.23L165.745 135.218C165.725 135.409 165.65 135.54 165.521 135.61C165.405 135.682 165.28 135.711 165.149 135.697C165.017 135.683 164.896 135.628 164.785 135.531C164.686 135.436 164.647 135.293 164.668 135.102L166.329 119.701C166.351 119.498 166.42 119.366 166.535 119.306C166.664 119.235 166.794 119.207 166.926 119.221C167.057 119.235 167.173 119.29 167.271 119.385C167.383 119.47 167.428 119.613 167.406 119.816L166.715 126.228ZM157.441 118.747L161.822 119.217C162.002 119.237 162.133 119.305 162.218 119.423C162.314 119.542 162.355 119.667 162.341 119.798C162.326 119.93 162.26 120.043 162.14 120.139C162.033 120.236 161.89 120.275 161.71 120.256L157.329 119.786C157.161 119.768 157.029 119.699 156.933 119.58C156.849 119.463 156.814 119.338 156.828 119.207C156.842 119.076 156.903 118.961 157.01 118.864C157.129 118.768 157.273 118.729 157.441 118.747ZM154.936 121.594L163.68 122.533C163.848 122.551 163.968 122.618 164.04 122.734C164.114 122.839 164.143 122.957 164.129 123.088C164.115 123.219 164.06 123.334 163.965 123.433C163.871 123.519 163.74 123.553 163.572 123.535L154.827 122.597C154.672 122.581 154.551 122.519 154.466 122.414C154.382 122.296 154.347 122.171 154.361 122.04C154.375 121.909 154.435 121.8 154.541 121.715C154.648 121.618 154.78 121.578 154.936 121.594ZM154.715 128.527C154.742 128.276 154.793 128.022 154.87 127.765C154.947 127.495 155.017 127.292 155.081 127.153C155.157 127.005 155.247 126.845 155.35 126.675C155.453 126.505 155.561 126.353 155.672 126.22C155.782 126.099 155.903 125.986 156.036 125.879C156.169 125.761 156.289 125.665 156.394 125.591C156.512 125.507 156.641 125.431 156.782 125.361C156.922 125.292 157.056 125.234 157.182 125.187C157.32 125.141 157.476 125.098 157.65 125.056C157.836 125.015 157.991 124.984 158.115 124.961C158.262 124.94 158.439 124.929 158.645 124.927C158.851 124.925 159.044 124.934 159.223 124.953C159.415 124.973 159.611 125.007 159.812 125.052C160.013 125.098 160.183 125.146 160.323 125.198C160.451 125.248 160.596 125.311 160.757 125.389C160.918 125.467 161.055 125.542 161.168 125.614C161.294 125.688 161.418 125.774 161.54 125.872C161.663 125.969 161.773 126.072 161.87 126.179C161.957 126.273 162.053 126.392 162.159 126.536C162.266 126.668 162.354 126.804 162.424 126.945C162.504 127.098 162.576 127.269 162.641 127.457C162.717 127.647 162.771 127.821 162.802 127.982C162.847 128.131 162.878 128.346 162.896 128.626C162.916 128.894 162.912 129.153 162.885 129.404C162.858 129.654 162.806 129.914 162.728 130.184C162.652 130.441 162.576 130.639 162.501 130.775C162.436 130.926 162.346 131.085 162.231 131.254C162.128 131.424 162.021 131.575 161.91 131.708C161.813 131.819 161.698 131.933 161.564 132.052C161.43 132.17 161.311 132.266 161.206 132.339C161.089 132.411 160.96 132.488 160.818 132.57C160.677 132.639 160.538 132.696 160.4 132.742C160.273 132.789 160.123 132.833 159.949 132.875C159.775 132.917 159.621 132.948 159.485 132.97C159.337 132.99 159.161 133.002 158.955 133.004C158.748 133.006 158.55 132.996 158.358 132.976C158.179 132.957 157.988 132.924 157.787 132.878C157.586 132.833 157.416 132.784 157.276 132.733C157.16 132.684 157.016 132.621 156.843 132.542C156.682 132.464 156.538 132.388 156.413 132.314C156.3 132.242 156.182 132.157 156.059 132.059C155.938 131.949 155.828 131.847 155.729 131.752C155.642 131.658 155.546 131.539 155.441 131.395C155.335 131.251 155.241 131.114 155.158 130.984C155.078 130.831 155.005 130.66 154.941 130.472C154.876 130.284 154.823 130.109 154.779 129.947C154.747 129.799 154.721 129.591 154.701 129.323C154.683 129.043 154.688 128.778 154.715 128.527ZM155.848 128.631C155.829 128.81 155.819 129.008 155.82 129.225C155.834 129.432 155.858 129.604 155.892 129.74C155.916 129.852 155.961 129.995 156.027 130.172C156.093 130.348 156.166 130.507 156.248 130.648C156.321 130.753 156.395 130.857 156.468 130.962C156.555 131.055 156.654 131.151 156.764 131.247C156.854 131.317 156.955 131.388 157.068 131.461C157.182 131.533 157.313 131.608 157.462 131.684C157.589 131.746 157.74 131.805 157.915 131.86C158.104 131.904 158.289 131.936 158.468 131.955C158.66 131.976 158.853 131.984 159.047 131.981C159.242 131.966 159.402 131.941 159.527 131.906C159.689 131.863 159.833 131.818 159.959 131.771C160.086 131.724 160.194 131.675 160.284 131.625C160.413 131.554 160.529 131.482 160.634 131.409C160.74 131.323 160.84 131.237 160.935 131.151C161.044 131.03 161.15 130.89 161.252 130.732C161.354 130.574 161.429 130.443 161.476 130.339C161.538 130.213 161.592 130.05 161.638 129.85C161.697 129.639 161.736 129.443 161.756 129.264C161.775 129.085 161.778 128.892 161.764 128.685C161.763 128.468 161.745 128.291 161.712 128.155C161.687 128.043 161.642 127.9 161.577 127.723C161.512 127.535 161.438 127.376 161.356 127.247C161.282 127.142 161.202 127.043 161.115 126.949C161.03 126.844 160.932 126.742 160.821 126.646C160.744 126.577 160.648 126.507 160.535 126.434C160.423 126.35 160.292 126.275 160.141 126.211C160.027 126.15 159.875 126.098 159.686 126.053C159.498 125.997 159.309 125.958 159.117 125.938C158.938 125.919 158.75 125.917 158.555 125.932C158.373 125.937 158.213 125.956 158.076 125.989C157.916 126.02 157.771 126.065 157.644 126.124C157.518 126.171 157.404 126.219 157.301 126.268C157.173 126.339 157.055 126.417 156.949 126.502C156.856 126.577 156.763 126.658 156.669 126.744C156.56 126.853 156.454 126.993 156.351 127.163C156.249 127.321 156.175 127.452 156.127 127.556C156.065 127.682 156.005 127.85 155.946 128.061C155.9 128.262 155.867 128.452 155.848 128.631Z" fill="#FFB347"/>
<path d="M182.659 127.974L183.355 121.527C183.377 121.324 183.445 121.193 183.561 121.133C183.69 121.062 183.826 121.034 183.969 121.05C184.101 121.064 184.216 121.118 184.315 121.214C184.427 121.298 184.472 121.442 184.45 121.645L182.789 137.046C182.768 137.237 182.694 137.368 182.565 137.439C182.448 137.511 182.324 137.54 182.192 137.525C182.049 137.51 181.922 137.454 181.811 137.358C181.712 137.263 181.673 137.12 181.694 136.928L182.551 128.977L180.343 128.74L179.535 136.226C179.515 136.417 179.446 136.548 179.329 136.621C179.212 136.693 179.088 136.721 178.957 136.707C178.825 136.693 178.71 136.639 178.611 136.543C178.512 136.448 178.473 136.305 178.494 136.114L180.078 121.429C180.099 121.226 180.168 121.095 180.284 121.035C180.4 120.963 180.525 120.934 180.656 120.948C180.788 120.962 180.903 121.017 181.002 121.112C181.102 121.195 181.141 121.338 181.119 121.541L180.451 127.737L182.659 127.974ZM171.128 123.404L178.167 124.159C178.334 124.177 178.46 124.245 178.544 124.363C178.63 124.468 178.665 124.587 178.651 124.718C178.637 124.85 178.576 124.964 178.469 125.061C178.363 125.146 178.226 125.18 178.058 125.162L171.019 124.407C170.852 124.389 170.719 124.326 170.622 124.219C170.538 124.101 170.503 123.977 170.517 123.846C170.531 123.714 170.591 123.606 170.697 123.521C170.816 123.425 170.96 123.386 171.128 123.404ZM173.727 134.842C173.583 134.827 173.411 134.796 173.21 134.75C173.022 134.694 172.882 134.649 172.788 134.615C172.695 134.58 172.585 134.532 172.459 134.47C172.344 134.41 172.242 134.351 172.151 134.293C172.05 134.221 171.944 134.137 171.833 134.041C171.734 133.946 171.647 133.858 171.571 133.777C171.485 133.672 171.396 133.547 171.302 133.404C171.209 133.261 171.137 133.139 171.088 133.037C171.029 132.91 170.972 132.765 170.917 132.602C170.875 132.429 170.832 132.261 170.789 132.099C170.759 131.927 170.732 131.677 170.707 131.348C170.695 131.008 170.706 130.677 170.741 130.355C170.776 130.033 170.835 129.707 170.919 129.378C171.015 129.05 171.095 128.811 171.16 128.661C171.237 128.512 171.313 128.363 171.39 128.215C171.48 128.055 171.567 127.92 171.652 127.808C171.722 127.719 171.818 127.614 171.94 127.495C172.063 127.363 172.177 127.26 172.282 127.187C172.373 127.124 172.477 127.057 172.594 126.985C172.724 126.902 172.846 126.843 172.958 126.807C173.059 126.769 173.172 126.733 173.297 126.698C173.434 126.665 173.552 126.641 173.65 126.627C173.748 126.614 173.894 126.605 174.089 126.602C174.296 126.588 174.471 126.589 174.615 126.604C174.759 126.619 174.924 126.655 175.112 126.712C175.301 126.756 175.442 126.795 175.535 126.83C175.64 126.865 175.756 126.914 175.883 126.976C176.009 127.037 176.112 127.097 176.191 127.153C176.293 127.213 176.393 127.296 176.491 127.403C176.601 127.499 176.695 127.588 176.771 127.669C176.858 127.762 176.941 127.886 177.021 128.04C177.115 128.183 177.187 128.305 177.236 128.407C177.295 128.534 177.351 128.685 177.405 128.86C177.472 129.024 177.521 129.186 177.553 129.347C177.596 129.508 177.623 129.759 177.635 130.098C177.647 130.438 177.635 130.769 177.601 131.091C177.566 131.413 177.506 131.739 177.422 132.068C177.34 132.385 177.26 132.624 177.182 132.785C177.117 132.935 177.034 133.089 176.932 133.247C176.843 133.395 176.757 133.525 176.672 133.636C176.602 133.725 176.506 133.83 176.384 133.95C176.274 134.071 176.166 134.174 176.06 134.259C175.969 134.322 175.858 134.388 175.73 134.459C175.613 134.531 175.497 134.591 175.383 134.639C175.294 134.678 175.181 134.714 175.045 134.748C174.908 134.781 174.784 134.804 174.674 134.817C174.576 134.83 174.429 134.845 174.233 134.86C174.039 134.863 173.87 134.857 173.727 134.842ZM173.835 133.839C173.954 133.852 174.081 133.853 174.216 133.844C174.362 133.835 174.478 133.824 174.565 133.809C174.664 133.783 174.765 133.752 174.865 133.714C174.966 133.677 175.061 133.639 175.15 133.6C175.254 133.538 175.353 133.464 175.447 133.378C175.553 133.293 175.634 133.211 175.691 133.132C175.776 133.021 175.856 132.891 175.933 132.742C176.023 132.582 176.1 132.428 176.165 132.277C176.231 132.115 176.288 131.916 176.338 131.68C176.4 131.445 176.444 131.202 176.471 130.952C176.498 130.701 176.507 130.454 176.497 130.212C176.5 129.958 176.486 129.752 176.454 129.591C176.423 129.431 176.38 129.269 176.325 129.106C176.283 128.933 176.233 128.782 176.174 128.655C176.135 128.567 176.073 128.469 175.987 128.364C175.914 128.259 175.833 128.166 175.745 128.084C175.668 128.015 175.583 127.958 175.491 127.912C175.401 127.854 175.309 127.802 175.217 127.756C175.136 127.723 175.025 127.687 174.884 127.647C174.755 127.609 174.63 127.584 174.511 127.571C174.391 127.558 174.258 127.556 174.112 127.565C173.978 127.574 173.861 127.586 173.763 127.6C173.663 127.625 173.563 127.657 173.462 127.694C173.374 127.721 173.286 127.76 173.195 127.81C173.092 127.872 172.993 127.946 172.899 128.032C172.805 128.119 172.723 128.201 172.654 128.278C172.57 128.389 172.482 128.525 172.393 128.684C172.316 128.833 172.245 128.983 172.181 129.133C172.116 129.283 172.052 129.481 171.989 129.728C171.94 129.964 171.901 130.208 171.874 130.459C171.847 130.709 171.833 130.955 171.831 131.197C171.841 131.439 171.861 131.647 171.891 131.819C171.922 131.979 171.959 132.146 172.001 132.32C172.056 132.483 172.113 132.628 172.172 132.755C172.222 132.845 172.285 132.942 172.358 133.047C172.432 133.151 172.512 133.244 172.6 133.326C172.679 133.383 172.758 133.44 172.836 133.496C172.927 133.555 173.018 133.607 173.11 133.653C173.203 133.687 173.314 133.723 173.444 133.761C173.585 133.8 173.715 133.826 173.835 133.839ZM173.208 120.62L176.727 120.997C176.907 121.017 177.039 121.085 177.123 121.203C177.207 121.321 177.242 121.445 177.228 121.576C177.214 121.708 177.153 121.822 177.046 121.919C176.938 122.016 176.795 122.055 176.615 122.036L173.096 121.659C172.916 121.639 172.778 121.57 172.682 121.451C172.598 121.333 172.563 121.209 172.577 121.078C172.591 120.946 172.652 120.832 172.76 120.735C172.879 120.639 173.028 120.601 173.208 120.62Z" fill="#FFB347"/>
<path d="M194.748 123.873C194.76 123.983 194.765 124.104 194.763 124.237C194.773 124.37 194.789 124.505 194.811 124.64C194.846 124.765 194.887 124.89 194.934 125.016C194.981 125.141 195.055 125.288 195.158 125.456C195.231 125.573 195.308 125.696 195.391 125.826C195.487 125.945 195.606 126.078 195.748 126.226C195.889 126.374 196.026 126.51 196.158 126.632C196.303 126.745 196.448 126.857 196.594 126.969C196.762 127.096 196.942 127.224 197.134 127.353C197.327 127.47 197.544 127.59 197.785 127.713C198.004 127.821 198.216 127.928 198.422 128.035C198.63 128.13 198.833 128.218 199.03 128.299C199.216 128.368 199.408 128.442 199.605 128.524C199.815 128.595 199.996 128.662 200.146 128.727C200.205 128.745 200.261 128.788 200.314 128.854C200.369 128.908 200.401 128.942 200.412 128.955C200.439 129.042 200.454 129.128 200.457 129.213C200.46 129.298 200.444 129.387 200.41 129.48C200.39 129.55 200.347 129.618 200.279 129.683C200.223 129.75 200.182 129.794 200.156 129.815C200.117 129.835 200.055 129.852 199.969 129.867C199.894 129.883 199.828 129.882 199.769 129.864C199.652 129.827 199.495 129.768 199.298 129.687C199.101 129.605 198.904 129.524 198.707 129.442C198.557 129.366 198.379 129.28 198.171 129.185C197.975 129.092 197.78 128.992 197.586 128.887C197.357 128.766 197.151 128.653 196.968 128.549C196.786 128.445 196.611 128.324 196.444 128.185C196.265 128.057 196.068 127.915 195.855 127.759C195.655 127.593 195.478 127.435 195.324 127.286C195.159 127.135 195.017 126.993 194.898 126.86C194.793 126.715 194.676 126.564 194.548 126.405C194.474 126.301 194.395 126.196 194.309 126.09C194.237 125.973 194.161 125.839 194.08 125.685C194.011 125.762 193.928 125.862 193.83 125.984C193.732 126.107 193.663 126.19 193.621 126.234C193.514 126.331 193.401 126.427 193.281 126.523C193.174 126.62 193.047 126.728 192.902 126.845C192.732 126.959 192.55 127.073 192.356 127.185C192.164 127.285 191.972 127.379 191.781 127.467C191.577 127.566 191.379 127.654 191.19 127.73C191 127.806 190.798 127.881 190.584 127.955C190.382 128.03 190.156 128.102 189.907 128.172C189.657 128.242 189.426 128.302 189.215 128.351C188.979 128.411 188.718 128.473 188.432 128.539C188.16 128.594 187.938 128.631 187.766 128.649C187.717 128.656 187.645 128.648 187.551 128.626C187.458 128.592 187.388 128.566 187.341 128.549C187.308 128.521 187.27 128.481 187.227 128.428C187.186 128.363 187.157 128.294 187.141 128.219C187.123 128.157 187.125 128.085 187.146 128.003C187.167 127.92 187.186 127.856 187.203 127.809C187.229 127.788 187.269 127.756 187.322 127.714C187.389 127.66 187.446 127.63 187.495 127.623C187.695 127.572 187.931 127.519 188.203 127.464C188.475 127.409 188.711 127.355 188.91 127.304C189.098 127.252 189.316 127.191 189.566 127.121C189.828 127.052 190.065 126.987 190.277 126.926C190.491 126.852 190.699 126.778 190.901 126.703C191.116 126.617 191.32 126.524 191.512 126.424C191.716 126.325 191.903 126.224 192.071 126.122C192.252 126.02 192.409 125.91 192.543 125.792C192.715 125.653 192.836 125.545 192.905 125.468C192.974 125.391 193.058 125.285 193.157 125.151C193.268 125.018 193.348 124.894 193.397 124.778C193.446 124.663 193.489 124.547 193.525 124.43C193.56 124.337 193.589 124.231 193.614 124.113C193.64 123.983 193.659 123.864 193.671 123.757L188.643 123.218C188.487 123.201 188.367 123.134 188.283 123.016C188.212 122.888 188.183 122.764 188.196 122.644C188.21 122.513 188.265 122.398 188.36 122.3C188.468 122.202 188.599 122.162 188.755 122.179L199.978 123.383C200.133 123.4 200.247 123.466 200.319 123.583C200.404 123.7 200.439 123.825 200.424 123.956C200.412 124.076 200.351 124.19 200.242 124.299C200.147 124.397 200.021 124.438 199.866 124.422L194.748 123.873ZM193.875 132.474L193.261 138.169C193.241 138.348 193.167 138.473 193.039 138.544C192.909 138.627 192.772 138.66 192.628 138.645C192.496 138.631 192.376 138.57 192.266 138.461C192.156 138.365 192.11 138.227 192.129 138.048L192.744 132.353L186.62 131.696C186.441 131.677 186.309 131.608 186.225 131.491C186.152 131.374 186.123 131.25 186.138 131.119C186.152 130.988 186.207 130.873 186.302 130.774C186.409 130.677 186.553 130.638 186.732 130.658L200.146 132.096C200.325 132.116 200.457 132.184 200.542 132.302C200.626 132.42 200.661 132.544 200.647 132.676C200.632 132.807 200.572 132.921 200.464 133.018C200.357 133.115 200.213 133.154 200.034 133.135L193.875 132.474Z" fill="#FFB347"/>
<path d="M206.398 128.89C206.525 129.17 206.641 129.442 206.746 129.707C206.864 129.961 206.981 130.221 207.098 130.487C207.287 130.978 207.453 131.401 207.597 131.754C207.752 132.109 207.919 132.526 208.098 133.004C208.287 133.495 208.451 133.941 208.589 134.343C208.727 134.744 208.858 135.163 208.98 135.598C209.12 135.988 209.247 136.382 209.362 136.781C209.477 137.167 209.57 137.54 209.641 137.898C209.668 138.094 209.643 138.272 209.565 138.433C209.488 138.582 209.369 138.672 209.209 138.703C209.072 138.736 208.935 138.71 208.8 138.623C208.674 138.549 208.585 138.418 208.533 138.232C208.447 137.908 208.366 137.592 208.29 137.282C208.216 136.96 208.129 136.642 208.03 136.33C207.946 135.983 207.84 135.615 207.713 135.227C207.597 134.84 207.469 134.452 207.33 134.063C207.211 133.7 207.082 133.33 206.941 132.952C206.812 132.576 206.676 132.211 206.532 131.858C206.446 131.643 206.35 131.409 206.244 131.156C206.152 130.893 206.05 130.653 205.941 130.436C205.897 130.612 205.848 130.788 205.793 130.963C205.739 131.126 205.679 131.289 205.613 131.451C205.476 131.823 205.333 132.2 205.182 132.582C205.033 132.953 204.886 133.305 204.741 133.64C204.599 133.951 204.443 134.272 204.274 134.604C204.118 134.926 203.952 135.234 203.775 135.529C203.623 135.815 203.42 136.18 203.166 136.623C202.914 137.055 202.681 137.417 202.468 137.708C202.424 137.776 202.363 137.835 202.285 137.887C202.219 137.941 202.155 137.97 202.094 137.976C202.081 137.986 202.014 137.985 201.895 137.972C201.786 137.973 201.703 137.952 201.647 137.91C201.567 137.865 201.502 137.791 201.453 137.689C201.403 137.588 201.376 137.5 201.372 137.427C201.367 137.366 201.38 137.295 201.413 137.214C201.446 137.133 201.491 137.054 201.548 136.975C201.769 136.721 201.954 136.463 202.104 136.201C202.254 135.928 202.439 135.621 202.657 135.282C202.817 135.034 202.976 134.737 203.134 134.392C203.306 134.036 203.46 133.732 203.596 133.481C203.778 133.138 203.938 132.781 204.075 132.409C204.225 132.027 204.374 131.656 204.522 131.298C204.656 130.95 204.782 130.565 204.901 130.143C205.031 129.722 205.16 129.313 205.287 128.916C205.381 128.612 205.478 128.218 205.578 127.734C205.691 127.251 205.784 126.832 205.859 126.478C205.913 126.205 205.971 125.886 206.035 125.518C206.112 125.14 206.175 124.784 206.223 124.451C206.25 124.309 206.311 124.195 206.405 124.109C206.511 124.023 206.647 123.996 206.814 124.026C206.98 124.056 207.105 124.129 207.189 124.247C207.275 124.353 207.309 124.483 207.292 124.639C207.239 125.019 207.173 125.411 207.093 125.813C207.027 126.204 206.958 126.565 206.886 126.896C206.817 127.19 206.741 127.508 206.656 127.849C206.584 128.18 206.498 128.527 206.398 128.89ZM215.117 140.514C215.096 140.705 215.021 140.836 214.893 140.907C214.776 140.979 214.652 141.008 214.52 140.993C214.376 140.978 214.249 140.922 214.138 140.826C214.04 140.731 214.001 140.587 214.021 140.396L215.682 124.995C215.704 124.792 215.773 124.661 215.888 124.601C216.017 124.53 216.153 124.502 216.297 124.518C216.429 124.532 216.544 124.586 216.643 124.681C216.754 124.766 216.8 124.91 216.778 125.113L215.117 140.514ZM212.033 131.379L209.465 131.103C209.31 131.087 209.184 131.019 209.088 130.9C208.991 130.781 208.95 130.656 208.965 130.524C208.979 130.393 209.045 130.279 209.165 130.184C209.284 130.088 209.422 130.048 209.577 130.065L212.145 130.34L212.728 124.932C212.75 124.729 212.819 124.597 212.934 124.537C213.051 124.465 213.175 124.436 213.307 124.45C213.439 124.465 213.554 124.519 213.653 124.614C213.765 124.699 213.81 124.843 213.788 125.045L212.204 139.73C212.183 139.921 212.109 140.052 211.98 140.123C211.863 140.195 211.739 140.224 211.607 140.21C211.476 140.196 211.36 140.141 211.262 140.046C211.163 139.951 211.124 139.808 211.145 139.617L212.033 131.379Z" fill="#FFB347"/>
<path d="M221.196 139.753L221.605 135.956C221.625 135.777 221.699 135.646 221.829 135.564C221.959 135.481 222.096 135.448 222.24 135.463C222.371 135.477 222.486 135.538 222.583 135.645C222.693 135.753 222.738 135.897 222.719 136.076L222.309 139.872L228.073 140.491L228.492 136.605C228.512 136.426 228.586 136.295 228.716 136.212C228.846 136.129 228.977 136.095 229.109 136.109C229.24 136.123 229.361 136.185 229.47 136.293C229.58 136.401 229.625 136.545 229.606 136.724L229.186 140.61L231.898 140.901C232.077 140.92 232.209 140.989 232.294 141.107C232.378 141.224 232.413 141.349 232.399 141.48C232.384 141.612 232.324 141.726 232.216 141.823C232.109 141.92 231.965 141.959 231.786 141.94L218.372 140.501C218.193 140.482 218.061 140.413 217.977 140.295C217.904 140.179 217.875 140.055 217.89 139.924C217.904 139.792 217.959 139.678 218.054 139.579C218.161 139.482 218.305 139.443 218.484 139.462L221.196 139.753ZM219.767 129.926C219.795 129.663 219.856 129.38 219.95 129.076C220.055 128.773 220.139 128.559 220.201 128.433C220.28 128.26 220.397 128.067 220.554 127.855C220.722 127.643 220.872 127.484 221.005 127.378C221.124 127.282 221.281 127.172 221.476 127.048C221.672 126.912 221.841 126.809 221.982 126.74C222.136 126.66 222.326 126.577 222.553 126.493C222.792 126.41 223.005 126.348 223.191 126.308C223.389 126.269 223.617 126.233 223.874 126.2C224.134 126.155 224.397 126.123 224.666 126.104C224.873 126.09 225.158 126.084 225.521 126.087C225.884 126.09 226.252 126.111 226.623 126.151C227.006 126.192 227.375 126.249 227.73 126.324C228.085 126.398 228.363 126.464 228.562 126.522C228.833 126.599 229.084 126.686 229.315 126.784C229.56 126.87 229.775 126.954 229.96 127.034C230.134 127.113 230.322 127.218 230.526 127.348C230.742 127.48 230.916 127.602 231.05 127.712C231.172 127.81 231.315 127.946 231.478 128.121C231.642 128.283 231.766 128.423 231.85 128.541C231.969 128.675 232.082 128.868 232.188 129.121C232.295 129.362 232.375 129.57 232.429 129.744C232.475 129.882 232.511 130.11 232.537 130.426C232.564 130.743 232.563 131.033 232.534 131.296C232.506 131.558 232.444 131.848 232.35 132.163C232.256 132.467 232.173 132.682 232.099 132.807C232.01 132.954 231.887 133.14 231.73 133.365C231.572 133.59 231.421 133.755 231.277 133.86C231.169 133.957 231.018 134.068 230.823 134.192C230.628 134.316 230.46 134.418 230.318 134.5C230.165 134.568 229.969 134.644 229.73 134.727C229.503 134.811 229.296 134.879 229.109 134.932C228.911 134.971 228.682 135.013 228.423 135.057C228.177 135.091 227.914 135.118 227.633 135.136C227.426 135.15 227.141 135.155 226.778 135.153C226.415 135.15 226.042 135.128 225.659 135.087C225.288 135.047 224.925 134.99 224.569 134.916C224.214 134.841 223.937 134.775 223.737 134.718C223.479 134.642 223.227 134.56 222.982 134.474C222.738 134.375 222.524 134.286 222.339 134.205C222.167 134.115 221.973 134.003 221.757 133.871C221.554 133.741 221.384 133.626 221.25 133.527C221.128 133.417 220.986 133.281 220.821 133.119C220.657 132.956 220.527 132.815 220.431 132.696C220.324 132.564 220.211 132.377 220.092 132.135C219.986 131.882 219.912 131.669 219.87 131.495C219.837 131.359 219.801 131.131 219.762 130.813C219.737 130.484 219.739 130.189 219.767 129.926ZM220.97 130.055C220.938 130.354 220.934 130.613 220.959 130.833C220.985 131.041 221.035 131.252 221.109 131.465C221.176 131.629 221.245 131.775 221.316 131.904C221.387 132.032 221.491 132.188 221.628 132.372C221.747 132.506 221.885 132.635 222.041 132.76C222.197 132.886 222.337 132.986 222.463 133.059C222.6 133.134 222.754 133.217 222.926 133.308C223.098 133.399 223.312 133.489 223.569 133.577C223.792 133.649 224.091 133.735 224.468 133.836C224.846 133.925 225.28 133.996 225.771 134.048C226.274 134.102 226.719 134.126 227.107 134.119C227.497 134.101 227.808 134.08 228.041 134.056C228.31 134.025 228.539 133.983 228.726 133.931C228.913 133.878 229.082 133.83 229.232 133.786C229.37 133.74 229.529 133.672 229.708 133.583C229.887 133.494 230.049 133.396 230.194 133.291C230.367 133.14 230.503 133.01 230.599 132.9C230.696 132.789 230.795 132.661 230.895 132.515C231.013 132.322 231.106 132.127 231.176 131.929C231.247 131.719 231.299 131.465 231.331 131.167C231.362 130.88 231.364 130.633 231.339 130.425C231.314 130.205 231.265 129.988 231.191 129.775C231.125 129.599 231.057 129.446 230.986 129.318C230.915 129.19 230.81 129.039 230.671 128.867C230.552 128.734 230.415 128.604 230.259 128.479C230.103 128.354 229.962 128.254 229.837 128.18C229.7 128.105 229.545 128.022 229.373 127.931C229.201 127.84 228.987 127.751 228.73 127.663C228.509 127.579 228.21 127.492 227.832 127.403C227.455 127.303 227.015 127.225 226.513 127.171C226.022 127.119 225.582 127.102 225.192 127.12C224.804 127.127 224.493 127.148 224.259 127.183C223.989 127.215 223.761 127.257 223.573 127.309C223.386 127.361 223.217 127.41 223.067 127.454C222.929 127.5 222.77 127.567 222.591 127.657C222.412 127.746 222.25 127.843 222.106 127.949C221.933 128.087 221.799 128.212 221.702 128.322C221.605 128.432 221.506 128.567 221.404 128.725C221.287 128.918 221.192 129.119 221.121 129.329C221.051 129.526 221.001 129.769 220.97 130.055Z" fill="#FFB347"/>
<path d="M243.703 135.555C243.596 135.652 243.476 135.754 243.343 135.861C243.224 135.957 243.092 136.051 242.949 136.145C242.819 136.227 242.684 136.303 242.543 136.373C242.414 136.444 242.281 136.502 242.143 136.547C241.991 136.604 241.793 136.649 241.547 136.683C241.313 136.718 241.118 136.727 240.963 136.711C240.867 136.7 240.702 136.652 240.469 136.567C240.248 136.483 240.075 136.404 239.95 136.33C239.837 136.258 239.712 136.178 239.576 136.091C239.44 136.004 239.3 135.904 239.154 135.792C239.044 135.696 238.909 135.597 238.75 135.495C238.605 135.383 238.481 135.297 238.379 135.238C238.265 135.165 238.145 135.104 238.017 135.054C237.901 135.005 237.777 134.974 237.646 134.96C237.526 134.947 237.385 134.962 237.223 135.005C237.074 135.037 236.936 135.083 236.809 135.142C236.72 135.181 236.636 135.226 236.558 135.278C236.48 135.33 236.401 135.388 236.321 135.452C236.228 135.526 236.141 135.602 236.061 135.677C235.981 135.741 235.894 135.817 235.8 135.903C235.697 135.964 235.58 135.982 235.449 135.956C235.319 135.93 235.21 135.87 235.124 135.776C235.05 135.672 235.026 135.554 235.053 135.424C235.08 135.282 235.122 135.172 235.179 135.094C235.285 135.009 235.405 134.907 235.539 134.788C235.685 134.671 235.823 134.571 235.953 134.488C236.095 134.407 236.236 134.332 236.377 134.262C236.519 134.181 236.653 134.111 236.781 134.052C236.883 134.002 237.033 133.964 237.229 133.937C237.427 133.898 237.592 133.885 237.724 133.899C237.82 133.91 237.949 133.942 238.113 133.995C238.278 134.037 238.412 134.088 238.514 134.147C238.606 134.193 238.732 134.267 238.89 134.369C239.05 134.458 239.191 134.552 239.314 134.65C239.438 134.735 239.578 134.841 239.734 134.966C239.891 135.08 240.032 135.18 240.156 135.265C240.258 135.325 240.396 135.4 240.567 135.491C240.741 135.57 240.899 135.617 241.043 135.632C241.174 135.646 241.32 135.644 241.479 135.625C241.651 135.607 241.8 135.569 241.928 135.51C242.042 135.462 242.151 135.407 242.254 135.346C242.358 135.284 242.468 135.217 242.585 135.145C242.689 135.072 242.782 135.004 242.861 134.94C242.941 134.876 243.027 134.806 243.12 134.732C243.223 134.67 243.333 134.658 243.451 134.695C243.581 134.721 243.684 134.78 243.758 134.873C243.844 134.979 243.879 135.103 243.863 135.246C243.849 135.378 243.796 135.481 243.703 135.555Z" fill="#FFB347"/>
<path d="M254.659 136.731C254.551 136.828 254.431 136.93 254.299 137.036C254.179 137.132 254.048 137.227 253.905 137.32C253.775 137.403 253.639 137.479 253.499 137.548C253.37 137.619 253.236 137.677 253.098 137.723C252.947 137.779 252.748 137.824 252.503 137.858C252.269 137.893 252.074 137.903 251.918 137.886C251.822 137.876 251.658 137.828 251.425 137.742C251.204 137.658 251.031 137.579 250.906 137.505C250.792 137.433 250.668 137.353 250.532 137.266C250.396 137.179 250.255 137.079 250.11 136.967C249.999 136.871 249.865 136.772 249.706 136.67C249.561 136.558 249.437 136.472 249.334 136.413C249.221 136.34 249.1 136.279 248.973 136.229C248.857 136.181 248.733 136.149 248.601 136.135C248.482 136.122 248.341 136.137 248.179 136.18C248.03 136.213 247.892 136.258 247.764 136.317C247.675 136.356 247.592 136.401 247.513 136.453C247.435 136.505 247.356 136.563 247.277 136.627C247.184 136.702 247.097 136.777 247.016 136.853C246.937 136.917 246.85 136.992 246.756 137.078C246.652 137.14 246.535 137.157 246.405 137.131C246.275 137.105 246.166 137.045 246.079 136.951C246.006 136.847 245.982 136.73 246.008 136.6C246.036 136.458 246.078 136.347 246.135 136.269C246.241 136.184 246.361 136.082 246.495 135.963C246.64 135.846 246.778 135.746 246.908 135.664C247.05 135.582 247.192 135.507 247.332 135.437C247.474 135.356 247.609 135.286 247.737 135.227C247.839 135.178 247.988 135.139 248.185 135.112C248.383 135.073 248.548 135.061 248.679 135.075C248.775 135.085 248.905 135.117 249.069 135.171C249.234 135.213 249.367 135.263 249.47 135.322C249.562 135.369 249.687 135.442 249.846 135.544C250.006 135.634 250.147 135.727 250.27 135.825C250.394 135.911 250.534 136.016 250.69 136.142C250.847 136.255 250.987 136.355 251.111 136.441C251.214 136.5 251.351 136.575 251.523 136.666C251.696 136.745 251.855 136.792 251.998 136.807C252.13 136.822 252.275 136.819 252.435 136.8C252.606 136.782 252.756 136.744 252.883 136.685C252.997 136.637 253.106 136.582 253.21 136.521C253.313 136.459 253.423 136.393 253.54 136.321C253.645 136.247 253.737 136.179 253.817 136.115C253.896 136.051 253.982 135.982 254.075 135.907C254.179 135.846 254.289 135.833 254.406 135.87C254.537 135.896 254.639 135.956 254.714 136.048C254.799 136.154 254.834 136.278 254.819 136.422C254.805 136.553 254.751 136.656 254.659 136.731Z" fill="#FFB347"/>
<path d="M44.6598 123.859L254.958 146.418L254.572 150L44.2735 127.44L44.6598 123.859Z" fill="#FFB347"/>
<path d="M140.929 32.6257C139.677 45.7074 105.98 56.0064 67.2127 52.254C28.445 48.5016 -0.713595 32.1187 0.53887 19.0371C1.79134 5.95542 35.6479 -2.88383 74.4156 0.86858C113.183 4.62098 142.182 19.5441 140.929 32.6257Z" fill="#FF4B0E"/>
<path d="M41.5632 14.0659L51.2357 15.0757L49.8438 28.5552L40.1712 27.5454L41.5632 14.0659ZM48.1374 17.0822L44.1854 16.6696L43.2673 25.5608L47.2193 25.9734L48.1374 17.0822ZM54.0508 13.4612L56.9766 13.7666L54.8773 34.0956L51.9515 33.7902L54.0508 13.4612ZM55.5522 21.3623L59.1112 21.7338L58.8641 24.1268L55.3051 23.7553L55.5522 21.3623Z" fill="white"/>
<path d="M65.4031 18.0636L67.7612 18.3098L67.6841 19.0562C67.5647 20.2124 67.2403 21.2881 66.7108 22.2831C66.1975 23.2651 65.4794 24.0925 64.5565 24.7654C63.6483 25.4399 62.5275 25.8924 61.1942 26.1231L60.0762 23.6986C61.2142 23.5067 62.1533 23.1757 62.8933 22.7056C63.6495 22.2224 64.2247 21.6389 64.6189 20.9552C65.0132 20.2715 65.2489 19.5564 65.326 18.81L65.4031 18.0636ZM65.9489 18.1206L68.307 18.3668L68.2299 19.1132C68.1589 19.8011 68.2488 20.4983 68.4995 21.205C68.7662 21.8986 69.2145 22.5445 69.8442 23.1428C70.474 23.7411 71.3123 24.2428 72.3592 24.648L70.8157 26.7725C69.571 26.2875 68.5636 25.6423 67.7934 24.8371C67.0247 24.0171 66.4799 23.0948 66.159 22.0702C65.8527 21.047 65.757 19.9793 65.8718 18.867L65.9489 18.1206ZM61.5721 16.2657L72.4455 17.4008L72.2097 19.684L61.3363 18.5488L61.5721 16.2657ZM65.7612 14.5949L68.6652 14.8981L68.3456 17.9935L65.4416 17.6904L65.7612 14.5949ZM74.2239 15.5671L77.1278 15.8703L75.8991 27.7691L72.9952 27.466L74.2239 15.5671ZM75.8544 20.5083L79.326 20.8707L79.0766 23.2856L75.605 22.9232L75.8544 20.5083ZM62.6665 27.2531L75.8107 28.6253L75.0513 35.9798L61.9071 34.6076L62.6665 27.2531ZM72.7365 30.6122L65.291 29.8349L65.0054 32.6011L72.4508 33.3783L72.7365 30.6122Z" fill="white"/>
<path d="M95.8621 17.8039L98.6132 18.0911L96.514 38.4201L93.7629 38.1329L95.8621 17.8039ZM92.4109 25.3655L95.7733 25.7165L95.5308 28.0655L92.1683 27.7145L92.4109 25.3655ZM91.3062 17.6833L94.0136 17.9659L92.0481 36.9997L89.3407 36.717L91.3062 17.6833ZM81.8731 18.6291L84.777 18.9322L83.5642 30.6774L80.6602 30.3742L81.8731 18.6291ZM80.7758 29.2546L82.1732 29.4005C83.1485 29.5023 84.1996 29.5824 85.3264 29.6409C86.4694 29.6863 87.6796 29.6499 88.9571 29.5317L88.9607 32.0618C87.6264 32.1592 86.3733 32.1837 85.2013 32.1353C84.0292 32.087 82.9337 32.0096 81.9148 31.9032L80.5174 31.7573L80.7758 29.2546Z" fill="white"/>
<path d="M101.259 31.7077L102.064 21.4117L105.262 21.7456L103.946 31.9882L101.259 31.7077ZM102.052 37.1755C101.569 37.1251 101.173 36.9212 100.865 36.564C100.565 36.2004 100.44 35.7828 100.488 35.3111C100.537 34.8395 100.745 34.4603 101.112 34.1736C101.487 33.8805 101.917 33.7591 102.4 33.8096C102.883 33.8601 103.275 34.0671 103.575 34.4307C103.883 34.7879 104.013 35.2023 103.964 35.674C103.915 36.1456 103.703 36.528 103.328 36.8211C102.961 37.1079 102.536 37.226 102.052 37.1755Z" fill="white"/>
<path d="M197.156 3.00197L205.476 31.0995L226.57 5.55559L221.444 33.9304L253.602 13.0096L235.444 39.363L276.061 24.76L246.342 46.957L292.128 39.855L253.255 56.0973L300.5 57.0716L255.624 66.0433L300.5 75.015L253.255 75.9893L292.128 92.2316L246.342 85.1296L276.061 107.327L235.444 92.7236L253.602 119.077L221.444 98.1562L226.57 126.531L205.476 100.987L197.156 129.085L188.835 100.987L167.741 126.531L172.867 98.1562L140.709 119.077L158.867 92.7236L118.25 107.327L147.969 85.1296L102.183 92.2316L141.056 75.9893L93.811 75.015L138.688 66.0433L93.811 57.0716L141.056 56.0973L102.183 39.855L147.969 46.957L118.25 24.76L158.867 39.363L140.709 13.0096L172.867 33.9304L167.741 5.55559L188.835 31.0995L197.156 3.00197Z" fill="#00FF7F"/>
<path d="M156.928 58.9918C160 58.9918 162.289 60.5397 162.305 62.885C162.289 65.027 160.479 66.4733 157.915 66.7625V69.186H163.481V70.8277H150.422V69.186H155.924V66.7469C153.369 66.4733 151.566 65.0192 151.566 62.885C151.566 60.5397 153.855 58.9918 156.928 58.9918ZM156.928 60.5866C154.937 60.5866 153.541 61.4622 153.541 62.885C153.541 64.386 154.937 65.2303 156.928 65.2303C158.934 65.2303 160.314 64.386 160.33 62.885C160.314 61.4622 158.934 60.5866 156.928 60.5866Z" fill="#1B1B1B"/>
<path d="M175.674 61.1338V62.713H165.75V58.4289H167.741V61.1338H175.674ZM177.179 63.6667V65.2459H164.12V63.6667H177.179ZM175.611 66.1058V69.8896H167.647V70.7964H176.05V72.3287H165.64V68.4511H173.62V67.6381H165.609V66.1058H175.611Z" fill="#1B1B1B"/>
<path d="M193.319 58.2569V65.4648H191.328V58.2569H193.319ZM193.335 66.0746V69.9365H185.747V70.812H193.727V72.3912H183.787V68.4511H191.344V67.6225H183.756V66.0746H193.335ZM186.86 59.6641C186.844 61.384 187.879 63.0413 190.215 63.7136L189.243 65.2459C187.605 64.769 186.476 63.784 185.841 62.5254C185.182 63.9013 184.015 64.9957 182.314 65.4961L181.326 63.9325C183.709 63.229 184.775 61.4309 184.775 59.6641V58.5696H186.86V59.6641Z" fill="#1B1B1B"/>
<path d="M207.472 58.2569V72.485H205.559V65.3553H204.383V71.7971H202.502V58.4915H204.383V63.7449H205.559V58.2569H207.472ZM201.797 59.8674V61.4778H200.872V67.3879C201.24 67.3488 201.593 67.3098 201.922 67.2628L202.032 68.7169C199.837 69.186 196.937 69.2329 195.165 69.2329L194.946 67.5912L196.153 67.5756V61.4778H195.212V59.8674H201.797ZM197.956 67.5443L199.084 67.513V61.4778H197.956V67.5443Z" fill="#1B1B1B"/>
<path d="M216.651 58.8354C218.736 58.8354 220.241 60.0081 220.241 61.728C220.241 63.1195 219.214 64.1827 217.686 64.511V65.543C218.799 65.4804 219.92 65.3788 220.962 65.2303L221.119 66.6843C218.188 67.2003 214.911 67.2628 212.528 67.2628L212.324 65.6837C213.312 65.6837 214.464 65.6759 215.679 65.6368V64.5267C214.104 64.214 213.045 63.143 213.061 61.728C213.045 60.0081 214.55 58.8354 216.651 58.8354ZM216.651 60.3364C215.632 60.3521 214.911 60.8368 214.927 61.728C214.911 62.5879 215.632 63.1039 216.651 63.1039C217.67 63.1039 218.36 62.5879 218.36 61.728C218.36 60.8368 217.67 60.3521 216.651 60.3364ZM223.769 58.2726V62.7443H225.587V64.4016H223.769V69.1234H221.762V58.2726H223.769ZM224.255 70.6244V72.2192H214.205V68.1697H216.212V70.6244H224.255Z" fill="#1B1B1B"/>
<path d="M239.129 69.2642V70.9059H226.069V69.2642H229.409V67.0909H227.574V62.3065H235.648V60.7742H227.559V59.1794H237.624V63.9013H229.581V65.4804H237.953V67.0909H235.93V69.2642H239.129ZM231.353 69.2642H233.971V67.0909H231.353V69.2642Z" fill="#1B1B1B"/>
<path d="M243.028 59.7267L242.825 67.6537H240.818L240.614 59.7267H243.028ZM241.837 71.1873C241.1 71.1873 240.504 70.5932 240.52 69.8739C240.504 69.1547 241.1 68.5762 241.837 68.5762C242.527 68.5762 243.138 69.1547 243.138 69.8739C243.138 70.5932 242.527 71.1873 241.837 71.1873Z" fill="#1B1B1B"/>
</svg>
