<svg width="968" height="484" viewBox="0 0 968 484" fill="none" xmlns="http://www.w3.org/2000/svg">
<path d="M168.496 351.2L167.954 356.228C167.854 357.152 167.774 358.079 167.713 359.008C167.695 359.902 167.691 360.661 167.702 361.286C167.688 362.142 167.719 363.119 167.796 364.219C167.877 365.28 167.951 366.223 168.018 367.048C168.124 367.878 168.268 368.712 168.451 369.55C168.634 370.388 168.821 371.187 169.012 371.948C169.234 372.79 169.472 373.654 169.728 374.539C170.023 375.428 170.307 376.237 170.579 376.968C170.981 377.947 171.34 378.784 171.655 379.48C171.975 380.138 172.344 380.879 172.762 381.703C173.25 382.613 173.69 383.42 174.082 384.125C174.513 384.834 174.944 385.542 175.375 386.251C176.017 387.177 176.607 388.04 177.146 388.838C177.727 389.602 178.289 390.364 178.832 391.123C179.176 391.55 179.253 392.104 179.063 392.785C178.915 393.431 178.651 393.89 178.27 394.161C177.847 394.466 177.368 394.571 176.831 394.474C176.295 394.378 175.832 394.152 175.44 393.799C174.829 392.954 174.271 392.153 173.767 391.398C173.267 390.604 172.722 389.688 172.131 388.65C171.648 387.702 171.145 386.752 170.623 385.799C170.105 384.808 169.624 383.841 169.179 382.897C168.773 381.957 168.403 381.041 168.07 380.147C167.741 379.216 167.416 378.246 167.096 377.237C166.797 376.387 166.518 375.538 166.257 374.692C166.001 373.807 165.752 372.865 165.508 371.864C165.412 371.308 165.316 370.752 165.22 370.197C165.127 369.602 165.035 369.008 164.943 368.413C164.765 368.979 164.589 369.525 164.415 370.052C164.242 370.579 164.029 371.101 163.778 371.62C163.366 372.55 162.936 373.459 162.489 374.346C162.085 375.199 161.666 376.011 161.231 376.783C160.742 377.704 160.239 378.566 159.723 379.368C159.246 380.174 158.687 381.01 158.048 381.877C157.404 382.782 156.744 383.647 156.07 384.47C155.434 385.298 154.76 386.122 154.047 386.942C153.249 387.831 152.521 388.61 151.863 389.279C151.206 389.949 150.507 390.634 149.768 391.334C149.349 391.601 148.868 391.725 148.323 391.705C147.775 391.724 147.305 391.557 146.914 391.203C146.561 390.853 146.337 390.401 146.24 389.845C146.187 389.254 146.419 388.734 146.936 388.283C147.623 387.694 148.275 387.082 148.89 386.447C149.547 385.777 150.295 385 151.132 384.115C151.751 383.441 152.327 382.802 152.861 382.197C153.437 381.557 154.06 380.845 154.73 380.059C155.319 379.304 155.842 378.62 156.298 378.007C156.755 377.393 157.266 376.63 157.833 375.716C158.255 375.06 158.685 374.327 159.124 373.517C159.601 372.711 160.018 371.918 160.376 371.138C160.767 370.4 161.122 369.64 161.441 368.856C161.76 368.071 162.04 367.283 162.281 366.491C162.57 365.625 162.824 364.717 163.043 363.767C163.306 362.782 163.521 361.87 163.689 361.03C163.833 360.422 163.976 359.639 164.118 358.68C164.299 357.725 164.44 356.785 164.539 355.861L165.081 350.834L153.563 349.597C153.061 349.543 152.675 349.326 152.403 348.946C152.17 348.57 152.077 348.171 152.123 347.747C152.168 347.323 152.345 346.952 152.652 346.635C152.998 346.321 153.422 346.191 153.924 346.245L180.607 349.111C181.147 349.169 181.533 349.385 181.766 349.761C181.999 350.137 182.092 350.537 182.047 350.96C182.001 351.384 181.824 351.755 181.517 352.073C181.209 352.39 180.786 352.52 180.245 352.462L168.496 351.2ZM188.244 371.149L177.42 369.987C176.842 369.925 176.415 369.723 176.139 369.382C175.906 369.006 175.813 368.606 175.858 368.183C175.904 367.759 176.079 367.407 176.382 367.128C176.728 366.815 177.19 366.689 177.769 366.751L188.593 367.913L190.604 349.249C190.674 348.594 190.896 348.17 191.268 347.976C191.683 347.747 192.102 347.656 192.527 347.702C192.99 347.752 193.38 347.93 193.699 348.237C194.06 348.509 194.205 348.973 194.134 349.628L188.78 399.323C188.714 399.939 188.473 400.362 188.058 400.59C187.682 400.822 187.262 400.914 186.799 400.864C186.375 400.818 185.984 400.64 185.627 400.329C185.309 400.022 185.183 399.56 185.249 398.944L188.244 371.149Z" fill="#FFB347"/>
<path d="M203.888 365.698C203.983 364.812 204.192 363.782 204.513 362.609C204.878 361.401 205.164 360.555 205.372 360.07C205.623 359.552 205.983 358.928 206.452 358.199C206.96 357.474 207.472 356.886 207.989 356.435C208.472 355.941 209.031 355.456 209.668 354.979C210.348 354.467 210.974 354.086 211.548 353.836C211.959 353.646 212.568 353.42 213.378 353.156C214.187 352.892 214.908 352.716 215.542 352.628C216.103 352.494 216.892 352.423 217.907 352.415C218.927 352.368 219.746 352.378 220.363 352.445C221.019 352.515 221.84 352.681 222.827 352.943C223.818 353.166 224.554 353.401 225.035 353.648C225.635 353.868 226.303 354.193 227.037 354.623C227.772 355.052 228.319 355.403 228.68 355.676C229.187 356.042 229.699 356.545 230.216 357.185C230.775 357.791 231.218 358.384 231.546 358.965C231.994 359.519 232.369 360.203 232.672 361.015C233.013 361.831 233.252 362.519 233.386 363.079C233.525 363.6 233.625 364.488 233.685 365.741C233.788 366.96 233.792 368.013 233.696 368.899C233.601 369.785 233.373 370.813 233.013 371.982C232.695 373.117 232.411 373.944 232.16 374.462C231.909 374.981 231.528 375.622 231.016 376.385C230.547 377.114 230.035 377.702 229.479 378.149C229.039 378.609 228.48 379.094 227.8 379.606C227.163 380.083 226.558 380.447 225.985 380.697C225.574 380.886 224.964 381.113 224.155 381.377C223.346 381.641 222.622 381.836 221.984 381.962C221.466 382.062 220.697 382.136 219.677 382.182C218.657 382.228 217.819 382.216 217.163 382.146C216.546 382.08 215.744 381.916 214.757 381.654C213.77 381.392 213.015 381.155 212.492 380.943C211.895 380.684 211.229 380.34 210.495 379.91C209.761 379.481 209.213 379.129 208.852 378.857C208.345 378.491 207.812 378.005 207.253 377.399C206.736 376.759 206.293 376.166 205.922 375.62C205.513 375.069 205.138 374.386 204.796 373.57C204.498 372.719 204.281 372.014 204.146 371.454C204.05 370.898 203.948 370.03 203.841 368.849C203.777 367.634 203.792 366.584 203.888 365.698ZM207.534 366.089C207.447 366.898 207.418 367.714 207.446 368.535C207.518 369.322 207.602 369.994 207.698 370.549C207.772 370.947 207.866 371.347 207.978 371.749C208.13 372.155 208.35 372.646 208.639 373.223C208.929 373.799 209.172 374.254 209.371 374.587C209.608 374.924 209.993 375.336 210.526 375.822C210.947 376.257 211.394 376.636 211.867 376.959C212.382 377.249 212.919 377.521 213.477 377.775C213.923 377.979 214.505 378.197 215.221 378.43C215.981 378.629 216.746 378.769 217.518 378.852C218.29 378.935 219.048 378.958 219.794 378.921C220.582 378.85 221.216 378.762 221.696 378.658C222.257 378.523 222.801 378.367 223.327 378.19C223.896 377.978 224.453 377.707 224.996 377.376C225.62 377.014 226.065 376.691 226.33 376.408C226.633 376.129 226.987 375.738 227.393 375.236C227.798 374.734 228.099 374.299 228.294 373.93C228.529 373.566 228.725 373.197 228.882 372.824C229.094 372.302 229.3 371.661 229.499 370.903C229.702 370.107 229.847 369.304 229.934 368.495C230.017 367.724 230.044 366.928 230.016 366.107C229.991 365.247 229.929 364.558 229.828 364.041C229.758 363.605 229.647 363.184 229.496 362.778C229.383 362.376 229.182 361.887 228.893 361.31C228.604 360.734 228.339 360.296 228.098 359.997C227.899 359.664 227.534 359.255 227 358.769C226.54 358.33 226.055 357.946 225.544 357.619C225.071 357.295 224.575 357.008 224.055 356.757C223.613 356.515 223.012 356.295 222.253 356.096C221.532 355.902 220.786 355.763 220.014 355.681C219.243 355.598 218.465 355.573 217.681 355.605C216.935 355.642 216.32 355.732 215.836 355.875C215.237 356.005 214.653 356.176 214.083 356.388C213.553 356.604 213.035 356.879 212.53 357.215C211.906 357.577 211.442 357.897 211.139 358.176C210.878 358.421 210.545 358.794 210.14 359.296C209.734 359.798 209.414 360.232 209.18 360.596C208.984 360.965 208.806 361.355 208.644 361.766C208.436 362.25 208.209 362.908 207.963 363.739C207.76 364.535 207.617 365.319 207.534 366.089ZM240.881 404.918C240.815 405.534 240.574 405.957 240.159 406.185C239.783 406.417 239.363 406.508 238.9 406.459C238.476 406.413 238.085 406.235 237.728 405.924C237.41 405.617 237.284 405.155 237.351 404.539L242.705 354.844C242.775 354.189 242.997 353.764 243.369 353.571C243.784 353.342 244.204 353.251 244.628 353.297C245.091 353.346 245.482 353.525 245.8 353.832C246.161 354.104 246.306 354.568 246.236 355.223L240.881 404.918ZM206.041 392.993C206.89 393.084 208.069 393.191 209.578 393.314C211.087 393.437 212.229 393.521 213.005 393.565C213.781 393.61 214.926 393.674 216.439 393.759C217.995 393.809 219.298 393.852 220.348 393.886C221.672 393.912 223.016 393.939 224.379 393.969C225.785 393.964 227.036 393.942 228.133 393.904C229.114 393.854 230.134 393.807 231.193 393.765C232.255 393.684 233.161 393.606 233.911 393.531C234.228 393.487 234.548 393.599 234.87 393.868C235.235 394.102 235.43 394.473 235.453 394.982C235.48 395.453 235.379 395.851 235.148 396.177C234.922 396.465 234.591 396.643 234.154 396.713C233.52 396.801 232.71 396.89 231.725 396.979C230.782 397.033 229.919 397.077 229.134 397.11C228.192 397.164 227.037 397.196 225.67 397.205C224.307 397.176 223 397.172 221.748 397.193C220.497 397.215 219.035 397.194 217.364 397.132C215.735 397.035 214.356 396.965 213.229 396.921C212.337 396.865 210.882 396.786 208.863 396.686C206.887 396.552 205.59 396.452 204.973 396.385L200.748 395.932C200.169 395.87 199.744 395.649 199.472 395.269C199.205 394.85 199.094 394.429 199.14 394.006C199.186 393.582 199.382 393.213 199.728 392.9C200.078 392.547 200.542 392.403 201.121 392.465L206.041 392.993Z" fill="#FFB347"/>
<path d="M285.849 366.842C286.245 367.157 286.582 367.466 286.862 367.769C287.18 368.076 287.515 368.404 287.868 368.754C288.29 369.189 288.763 369.688 289.288 370.251C289.851 370.818 290.359 371.359 290.811 371.876C291.301 372.396 291.772 372.914 292.224 373.43C292.676 373.946 293.123 374.501 293.567 375.094C294.088 375.696 294.52 376.21 294.864 376.637C295.209 377.063 295.566 377.55 295.937 378.096C296.311 378.604 296.669 379.091 297.009 379.556C297.349 380.021 297.687 380.505 298.023 381.009C298.291 381.427 298.541 381.824 298.773 382.2C299.049 382.542 299.301 382.919 299.53 383.334C299.56 383.415 299.593 383.652 299.628 384.046C299.707 384.405 299.734 384.7 299.709 384.931C299.676 385.239 299.527 385.535 299.262 385.818C299.001 386.063 298.828 386.22 298.743 386.289C298.533 386.422 298.309 386.515 298.069 386.567C297.872 386.585 297.677 386.583 297.484 386.563C297.291 386.542 297.029 386.436 296.698 386.244C296.372 386.015 296.122 385.793 295.95 385.58C295.722 385.165 295.493 384.751 295.264 384.337C295.036 383.923 294.79 383.487 294.527 383.03C294.268 382.535 293.968 382.054 293.628 381.589C293.327 381.128 293.042 380.688 292.775 380.27C292.473 379.809 292.155 379.327 291.819 378.823C291.482 378.319 291.11 377.792 290.701 377.242C290.33 376.695 289.938 376.166 289.525 375.654C289.151 375.146 288.772 374.677 288.389 374.246C288.01 373.777 287.646 373.348 287.298 372.96C286.949 372.572 286.547 372.139 286.091 371.661C285.846 371.401 285.562 371.137 285.24 370.868C284.96 370.565 284.678 370.282 284.395 370.018C284.199 370.386 284.003 370.755 283.807 371.124C283.654 371.458 283.462 371.788 283.232 372.114C282.682 372.873 282.108 373.669 281.511 374.501C280.914 375.333 280.372 376.016 279.885 376.548C279.356 377.114 278.762 377.733 278.105 378.402C277.447 379.072 276.877 379.654 276.394 380.148C275.706 380.736 275.04 381.308 274.395 381.862C273.749 382.416 273.128 382.934 272.529 383.415C272.281 383.544 271.996 383.65 271.675 383.733C271.393 383.819 271.194 383.856 271.078 383.844C270.923 383.827 270.694 383.783 270.39 383.712C270.128 383.605 269.909 383.465 269.732 383.29C269.59 383.158 269.474 382.97 269.383 382.727C269.296 382.445 269.266 382.188 269.29 381.957C269.311 381.764 269.396 381.52 269.545 381.224C269.694 380.929 269.852 380.731 270.019 380.632C270.613 380.189 271.209 379.727 271.807 379.246C272.41 378.726 273.012 378.206 273.615 377.686C274.089 377.27 274.61 376.78 275.178 376.218C275.789 375.621 276.355 375.078 276.876 374.588C277.371 373.979 277.868 373.35 278.367 372.702C278.905 372.059 279.36 371.464 279.73 370.92C280.11 370.298 280.495 369.618 280.887 368.881C281.317 368.148 281.683 367.466 281.986 366.836C282.245 366.241 282.512 365.568 282.788 364.818C283.064 364.068 283.291 363.411 283.469 362.845C283.682 362.323 283.879 361.759 284.061 361.155C284.248 360.513 284.389 359.924 284.486 359.389C284.545 359.2 284.645 358.997 284.786 358.778C284.931 358.521 285.086 358.343 285.253 358.244C285.335 358.214 285.497 358.153 285.741 358.062C286.024 357.976 286.259 357.962 286.448 358.021C286.637 358.081 286.843 358.161 287.066 358.263C287.289 358.365 287.468 358.521 287.601 358.73C287.705 358.858 287.8 359.063 287.886 359.345C287.973 359.627 287.981 359.92 287.909 360.224C287.825 360.644 287.689 361.175 287.503 361.817C287.359 362.425 287.194 363.051 287.008 363.693C286.834 364.22 286.641 364.745 286.429 365.267C286.255 365.794 286.062 366.319 285.849 366.842ZM278.047 396.868L305.946 399.863C306.447 399.917 306.843 399.862 307.134 399.699C307.429 399.497 307.6 399.184 307.645 398.76L307.988 395.582C308.029 395.197 307.925 394.893 307.676 394.671C307.427 394.45 307.051 394.312 306.549 394.258L276.452 391.026C275.873 390.964 275.446 390.762 275.17 390.421C274.899 390.041 274.786 389.639 274.832 389.216C274.877 388.792 275.071 388.442 275.413 388.167C275.755 387.892 276.215 387.786 276.794 387.848L308.918 391.298C309.921 391.405 310.651 391.698 311.107 392.176C311.605 392.619 311.801 393.341 311.693 394.343L311.002 400.757C310.898 401.72 310.534 402.382 309.909 402.744C309.328 403.071 308.535 403.181 307.532 403.073L279.518 400.065C279.055 400.015 278.656 400.089 278.323 400.287C278.032 400.451 277.862 400.764 277.812 401.226L277.407 404.982C277.345 405.56 277.479 405.945 277.81 406.136C278.175 406.37 278.666 406.52 279.284 406.587L310.018 409.887C310.635 409.953 311.063 410.155 311.299 410.492C311.532 410.868 311.626 411.268 311.58 411.692C311.534 412.115 311.36 412.467 311.057 412.746C310.749 413.064 310.287 413.189 309.669 413.123L277.604 409.68C276.446 409.555 275.483 409.257 274.714 408.785C273.945 408.313 273.631 407.422 273.773 406.112L274.513 399.235C274.613 398.311 274.956 397.666 275.542 397.3C276.17 396.9 277.005 396.756 278.047 396.868ZM315.111 362.619L312.396 387.813C312.33 388.43 312.089 388.852 311.674 389.08C311.298 389.313 310.878 389.404 310.415 389.354C309.991 389.309 309.6 389.13 309.243 388.819C308.925 388.512 308.799 388.051 308.866 387.434L311.58 362.24C311.651 361.585 311.872 361.161 312.244 360.967C312.659 360.739 313.079 360.647 313.503 360.693C313.966 360.743 314.357 360.921 314.675 361.228C315.036 361.5 315.181 361.964 315.111 362.619Z" fill="#FFB347"/>
<path d="M355.151 388.313L362.618 389.115L364.89 368.023C364.961 367.368 365.206 366.907 365.625 366.641C366.083 366.378 366.504 366.268 366.89 366.309C367.276 366.35 367.626 366.544 367.94 366.889C368.293 367.239 368.434 367.741 368.363 368.396L363.022 417.975C362.955 418.592 362.712 419.033 362.293 419.3C361.909 419.61 361.523 419.744 361.138 419.702C360.752 419.661 360.365 419.444 359.978 419.052C359.625 418.702 359.482 418.219 359.549 417.603L362.263 392.408L354.797 391.607L352.238 415.356C352.171 415.973 351.929 416.414 351.51 416.681C351.129 416.952 350.746 417.066 350.36 417.025C349.974 416.984 349.624 416.79 349.31 416.445C348.996 416.099 348.872 415.618 348.939 415.002L354.05 367.561C354.121 366.906 354.344 366.462 354.72 366.23C355.139 365.963 355.523 365.848 355.87 365.885C356.217 365.923 356.567 366.116 356.92 366.466C357.277 366.777 357.42 367.26 357.349 367.915L355.151 388.313ZM326.693 364.974L348.572 367.323C349.074 367.377 349.441 367.592 349.673 367.967C349.906 368.343 350 368.743 349.954 369.167C349.913 369.552 349.736 369.923 349.424 370.279C349.117 370.596 348.712 370.728 348.211 370.674L326.332 368.325C325.831 368.271 325.463 368.056 325.231 367.681C325.002 367.266 324.908 366.867 324.95 366.481C324.996 366.058 325.172 365.687 325.48 365.369C325.787 365.052 326.192 364.92 326.693 364.974ZM336.218 406.446L341.368 375.493C341.504 374.962 341.777 374.601 342.187 374.412C342.641 374.188 343.076 374.137 343.492 374.259C343.874 374.339 344.204 374.531 344.484 374.834C344.802 375.141 344.932 375.564 344.874 376.103L339.729 406.472C340.003 406.463 340.256 406.47 340.487 406.495C340.723 406.482 340.959 406.468 341.194 406.454C342.017 406.426 342.919 406.386 343.9 406.336C344.92 406.289 345.863 406.235 346.728 406.172C347.003 406.162 347.284 406.27 347.572 406.496C347.898 406.726 348.056 407.074 348.045 407.541C348.076 407.973 347.975 408.371 347.74 408.736C347.51 409.062 347.236 409.246 346.919 409.29C346.17 409.366 345.343 409.433 344.439 409.492C343.573 409.555 342.71 409.598 341.848 409.623C340.828 409.669 339.753 409.69 338.621 409.685C337.528 409.685 336.515 409.673 335.58 409.651C334.685 409.633 333.731 409.608 332.719 409.578C331.708 409.547 330.696 409.516 329.685 409.486C328.6 409.408 327.359 409.333 325.962 409.261C324.603 409.193 323.673 409.132 323.171 409.078L321.087 408.854C320.586 408.801 320.199 408.584 319.928 408.204C319.695 407.828 319.601 407.428 319.647 407.005C319.693 406.581 319.869 406.21 320.177 405.893C320.523 405.579 320.947 405.449 321.448 405.503L323.416 405.714C323.879 405.764 324.477 405.828 325.211 405.907C325.948 405.947 326.647 405.983 327.307 406.015L328.682 374.773C328.748 374.157 328.95 373.731 329.288 373.494C329.63 373.219 330.054 373.089 330.56 373.105C331.031 373.077 331.445 373.219 331.802 373.53C332.202 373.807 332.392 374.217 332.372 374.761L330.676 406.26C331.34 406.254 331.983 406.264 332.605 406.292C333.265 406.324 333.848 406.347 334.354 406.363C334.667 406.357 334.977 406.371 335.286 406.404C335.595 406.438 335.906 406.451 336.218 406.446Z" fill="#FFB347"/>
<path d="M381.255 408.594L409.153 411.589C409.655 411.643 410.051 411.588 410.342 411.425C410.637 411.223 410.807 410.91 410.853 410.486L411.115 408.059C411.156 407.674 411.052 407.37 410.803 407.149C410.553 406.927 410.178 406.789 409.676 406.736L379.579 403.503C378.961 403.437 378.515 403.233 378.239 402.892C378.007 402.516 377.913 402.117 377.959 401.693C378.004 401.269 378.179 400.918 378.482 400.638C378.824 400.363 379.304 400.259 379.921 400.325L412.045 403.775C413.048 403.883 413.777 404.175 414.233 404.653C414.732 405.096 414.928 405.819 414.82 406.82L414.203 412.541C414.1 413.504 413.735 414.166 413.111 414.528C412.529 414.855 411.737 414.965 410.733 414.857L382.719 411.849C382.256 411.799 381.858 411.873 381.525 412.071C381.234 412.235 381.063 412.548 381.014 413.01L380.684 416.073C380.621 416.651 380.755 417.035 381.086 417.226C381.451 417.461 381.923 417.609 382.502 417.671L413.294 420.977C413.912 421.044 414.339 421.245 414.576 421.583C414.809 421.958 414.902 422.358 414.856 422.782C414.811 423.206 414.636 423.557 414.333 423.836C414.025 424.154 413.563 424.28 412.946 424.213L380.88 420.77C379.722 420.646 378.74 420.345 377.933 419.869C377.164 419.397 376.85 418.506 376.991 417.196L377.663 410.955C377.763 410.031 378.125 409.388 378.749 409.026C379.378 408.626 380.213 408.482 381.255 408.594ZM419.419 396.734C419.998 396.796 420.423 397.017 420.695 397.397C420.97 397.738 421.085 398.121 421.039 398.545C420.994 398.968 420.798 399.337 420.452 399.651C420.11 399.926 419.649 400.032 419.071 399.97L375.834 395.327C375.255 395.265 374.828 395.063 374.553 394.722C374.32 394.346 374.226 393.946 374.272 393.523C374.318 393.099 374.492 392.747 374.796 392.468C375.142 392.155 375.604 392.029 376.183 392.091L419.419 396.734ZM384.598 377.563L412.497 380.559C412.998 380.613 413.395 380.558 413.685 380.394C413.98 380.192 414.151 379.879 414.196 379.456L414.408 377.491C414.45 377.106 414.346 376.802 414.096 376.581C413.847 376.359 413.471 376.221 412.97 376.167L382.872 372.935C382.255 372.869 381.808 372.665 381.533 372.324C381.3 371.948 381.206 371.548 381.252 371.125C381.298 370.701 381.472 370.349 381.776 370.07C382.122 369.757 382.603 369.633 383.221 369.699L415.344 373.149C416.348 373.257 417.077 373.549 417.533 374.027C418.032 374.47 418.227 375.193 418.119 376.194L417.547 381.51C417.443 382.474 417.079 383.136 416.454 383.497C415.872 383.825 415.08 383.934 414.077 383.827L386.063 380.818C385.6 380.769 385.201 380.843 384.868 381.041C384.577 381.204 384.407 381.517 384.357 381.98L384.114 384.233C384.052 384.811 384.184 385.215 384.51 385.445C384.88 385.64 385.354 385.769 385.932 385.831L416.146 389.076C416.763 389.142 417.19 389.344 417.427 389.681C417.664 390.018 417.76 390.399 417.714 390.823C417.669 391.246 417.492 391.617 417.185 391.935C416.881 392.214 416.421 392.32 415.804 392.254L384.317 388.873C383.159 388.749 382.177 388.448 381.369 387.972C380.6 387.5 380.286 386.609 380.428 385.299L381.007 379.925C381.106 379 381.468 378.357 382.093 377.995C382.721 377.595 383.557 377.451 384.598 377.563Z" fill="#FFB347"/>
<path d="M463.514 414.037L464.324 406.525L444.355 404.38C443.776 404.318 443.351 404.097 443.08 403.717C442.809 403.337 442.694 402.955 442.735 402.57C442.781 402.146 442.975 401.797 443.316 401.522C443.658 401.246 444.119 401.14 444.698 401.202L488.281 405.882C488.86 405.945 489.287 406.146 489.563 406.488C489.838 406.829 489.953 407.212 489.908 407.635C489.866 408.021 489.672 408.37 489.326 408.684C488.98 408.997 488.518 409.123 487.939 409.061L467.97 406.916L467.161 414.428L480.01 415.808C480.551 415.866 481.027 415.976 481.439 416.137C481.855 416.259 482.172 416.391 482.392 416.531C482.679 416.757 482.897 417.092 483.044 417.537C483.234 417.947 483.3 418.422 483.242 418.961L481.972 430.749C481.906 431.365 481.663 431.807 481.244 432.074C480.825 432.34 480.422 432.453 480.036 432.412C479.651 432.37 479.281 432.175 478.929 431.825C478.576 431.475 478.433 430.992 478.499 430.376L479.539 420.726C479.597 420.187 479.508 419.749 479.271 419.411C479.073 419.078 478.607 418.872 477.874 418.794L447.602 415.543C447.062 415.485 446.654 415.285 446.379 414.944C446.103 414.603 445.99 414.201 446.04 413.738C446.09 413.276 446.284 412.927 446.621 412.69C446.963 412.415 447.404 412.307 447.945 412.365L463.514 414.037ZM459.412 377.121L478.107 379.129C478.647 379.187 479.034 379.404 479.267 379.779C479.542 380.121 479.657 380.503 479.611 380.927C479.57 381.312 479.376 381.662 479.03 381.975C478.723 382.293 478.299 382.423 477.759 382.365L459.063 380.357C458.523 380.299 458.117 380.08 457.846 379.7C457.613 379.325 457.518 378.944 457.559 378.559C457.605 378.135 457.779 377.784 458.082 377.505C458.429 377.191 458.872 377.063 459.412 377.121ZM466.24 388.201L449.686 386.423C449.146 386.365 448.738 386.165 448.462 385.824C448.229 385.448 448.134 385.068 448.175 384.683C448.221 384.259 448.395 383.907 448.699 383.628C449.041 383.353 449.482 383.245 450.022 383.303L486.371 387.206C486.911 387.264 487.299 387.462 487.536 387.799C487.773 388.136 487.869 388.517 487.823 388.94C487.782 389.326 487.607 389.677 487.3 389.995C486.996 390.274 486.575 390.384 486.034 390.326L469.654 388.567C469.681 388.687 469.707 388.807 469.733 388.927C469.798 389.05 469.86 389.194 469.921 389.356C470.046 389.642 470.191 389.93 470.355 390.221C470.561 390.477 470.837 390.818 471.181 391.245C471.499 391.552 471.8 391.837 472.084 392.102C472.368 392.366 472.783 392.683 473.328 393.054C473.766 393.335 474.282 393.624 474.874 393.921C475.471 394.18 475.99 394.431 476.432 394.673C477.025 394.97 477.658 395.253 478.332 395.52C479.048 395.753 479.707 395.979 480.308 396.2C480.947 396.424 481.569 396.628 482.174 396.809C482.818 396.995 483.444 397.16 484.053 397.303C484.62 397.481 485.207 397.642 485.816 397.785C486.426 397.928 486.919 398.059 487.296 398.178C487.52 398.28 487.685 398.375 487.792 398.465C487.9 398.554 488.003 398.682 488.102 398.849C488.171 398.934 488.206 399.152 488.208 399.503C488.247 399.858 488.218 400.128 488.12 400.312C488.044 400.655 487.898 400.931 487.68 401.142C487.466 401.313 487.318 401.415 487.237 401.445C487.079 401.467 486.86 401.502 486.582 401.55C486.346 401.563 486.115 401.539 485.887 401.475C485.432 401.348 484.956 401.239 484.459 401.146C483.966 401.016 483.455 400.863 482.927 400.69C482.4 400.516 481.814 400.336 481.17 400.15C480.531 399.926 479.949 399.707 479.426 399.495C478.902 399.283 478.304 399.044 477.63 398.776C476.956 398.509 476.34 398.248 475.782 397.993C475.185 397.735 474.591 397.456 473.998 397.159C473.41 396.823 472.806 396.446 472.188 396.029C471.677 395.702 471.185 395.376 470.712 395.052C470.24 394.729 469.844 394.414 469.526 394.107C469.204 393.838 468.851 393.489 468.468 393.058C468.124 392.631 467.816 392.228 467.544 391.848C467.365 392.063 467.163 392.314 466.936 392.601C466.714 392.85 466.454 393.095 466.155 393.336C465.945 393.469 465.633 393.65 465.218 393.878C464.842 394.11 464.427 394.338 463.973 394.563C463.438 394.817 462.927 395.035 462.439 395.216C461.951 395.398 461.405 395.573 460.802 395.742C460.159 395.907 459.459 396.065 458.701 396.218C457.982 396.374 457.341 396.52 456.78 396.654C456.142 396.781 455.427 396.899 454.634 397.008C453.881 397.122 453.167 397.221 452.495 397.305C451.745 397.38 450.916 397.466 450.008 397.564C449.142 397.627 448.435 397.668 447.887 397.687C447.612 397.696 447.362 397.669 447.134 397.606C446.95 397.508 446.746 397.408 446.523 397.306C446.449 397.26 446.346 397.132 446.213 396.922C446.079 396.713 446.005 396.491 445.992 396.256C445.978 396.02 446.005 395.77 446.073 395.505C446.179 395.243 446.255 395.076 446.302 395.003C446.477 394.827 446.627 394.707 446.751 394.642C446.875 394.578 446.997 394.532 447.117 394.506C447.747 394.457 448.454 394.416 449.238 394.383C450.065 394.316 450.735 394.252 451.25 394.19C451.802 394.132 452.455 394.047 453.209 393.933C454.006 393.785 454.721 393.666 455.355 393.579C455.993 393.452 456.689 393.332 457.443 393.218C458.201 393.066 458.842 392.92 459.364 392.782C460.045 392.621 460.668 392.454 461.233 392.281C461.802 392.069 462.294 391.849 462.709 391.621C463.12 391.431 463.49 391.257 463.82 391.097C464.153 390.899 464.472 390.661 464.775 390.382C464.993 390.171 465.193 389.939 465.377 389.686C465.603 389.399 465.788 389.126 465.933 388.869C466.027 388.723 466.08 388.593 466.093 388.477C466.144 388.366 466.193 388.274 466.24 388.201Z" fill="#FFB347"/>
<path d="M536.266 407.294L542.402 407.953C542.98 408.015 543.386 408.234 543.619 408.61C543.894 408.951 544.009 409.334 543.964 409.758C543.918 410.181 543.722 410.55 543.376 410.864C543.073 411.143 542.632 411.251 542.053 411.189L535.918 410.53L533.141 436.302C533.075 436.919 532.834 437.341 532.419 437.569C532.043 437.802 531.642 437.895 531.218 437.849C530.793 437.804 530.403 437.625 530.046 437.314C529.728 437.007 529.602 436.546 529.668 435.929L535.022 386.234C535.093 385.58 535.314 385.155 535.686 384.961C536.101 384.733 536.521 384.642 536.946 384.687C537.37 384.733 537.741 384.909 538.06 385.216C538.42 385.489 538.566 385.953 538.495 386.607L536.266 407.294ZM506.372 383.158L520.494 384.674C521.073 384.737 521.498 384.958 521.77 385.337C522.08 385.721 522.212 386.125 522.166 386.549C522.12 386.973 521.905 387.339 521.521 387.649C521.175 387.962 520.712 388.088 520.133 388.026L506.011 386.509C505.47 386.451 505.045 386.23 504.735 385.846C504.464 385.466 504.351 385.065 504.397 384.641C504.443 384.217 504.638 383.848 504.984 383.535C505.369 383.225 505.831 383.1 506.372 383.158ZM498.297 392.345L526.485 395.372C527.025 395.43 527.412 395.647 527.644 396.022C527.881 396.359 527.977 396.74 527.931 397.164C527.886 397.587 527.709 397.958 527.402 398.276C527.098 398.555 526.677 398.666 526.136 398.608L497.949 395.581C497.447 395.527 497.058 395.329 496.783 394.988C496.512 394.608 496.399 394.206 496.444 393.782C496.49 393.359 496.684 393.009 497.026 392.734C497.372 392.421 497.796 392.291 498.297 392.345ZM497.585 414.714C497.672 413.905 497.839 413.085 498.084 412.254C498.334 411.385 498.561 410.727 498.765 410.282C499.012 409.802 499.302 409.287 499.634 408.738C499.967 408.189 500.312 407.7 500.671 407.271C501.025 406.881 501.416 406.514 501.843 406.17C502.275 405.787 502.659 405.478 502.997 405.241C503.378 404.971 503.794 404.723 504.248 404.499C504.702 404.275 505.132 404.087 505.538 403.936C505.983 403.789 506.487 403.648 507.047 403.514C507.647 403.383 508.146 403.281 508.544 403.207C509.02 403.141 509.59 403.105 510.254 403.098C510.918 403.092 511.54 403.119 512.118 403.181C512.736 403.248 513.368 403.355 514.016 403.502C514.664 403.65 515.213 403.806 515.664 403.971C516.076 404.132 516.541 404.338 517.061 404.589C517.58 404.84 518.022 405.082 518.388 405.316C518.791 405.554 519.191 405.831 519.586 406.146C519.982 406.461 520.336 406.792 520.65 407.137C520.93 407.44 521.24 407.824 521.58 408.289C521.925 408.716 522.209 409.156 522.433 409.608C522.692 410.104 522.926 410.655 523.134 411.262C523.38 411.873 523.553 412.437 523.654 412.954C523.797 413.437 523.898 414.13 523.957 415.033C524.02 415.897 524.008 416.733 523.921 417.542C523.833 418.351 523.665 419.191 523.415 420.06C523.169 420.891 522.925 421.527 522.683 421.969C522.474 422.453 522.185 422.967 521.814 423.512C521.481 424.061 521.136 424.55 520.777 424.979C520.466 425.335 520.094 425.705 519.663 426.087C519.231 426.469 518.846 426.779 518.509 427.015C518.132 427.248 517.715 427.495 517.258 427.758C516.804 427.982 516.355 428.167 515.91 428.314C515.503 428.465 515.019 428.608 514.458 428.743C513.897 428.878 513.398 428.98 512.962 429.05C512.486 429.116 511.916 429.152 511.252 429.159C510.588 429.165 509.947 429.135 509.329 429.069C508.751 429.007 508.137 428.902 507.49 428.755C506.842 428.607 506.293 428.451 505.842 428.285C505.469 428.128 505.003 427.923 504.445 427.668C503.926 427.417 503.464 427.173 503.06 426.934C502.695 426.7 502.315 426.426 501.92 426.111C501.528 425.757 501.174 425.426 500.855 425.119C500.576 424.817 500.266 424.433 499.926 423.967C499.585 423.502 499.282 423.06 499.014 422.642C498.756 422.147 498.522 421.596 498.314 420.989C498.107 420.382 497.933 419.818 497.794 419.296C497.69 418.817 497.606 418.146 497.543 417.282C497.484 416.379 497.498 415.523 497.585 414.714ZM501.238 415.048C501.176 415.626 501.146 416.266 501.148 416.967C501.193 417.635 501.27 418.189 501.379 418.629C501.457 418.988 501.603 419.452 501.815 420.02C502.027 420.588 502.264 421.101 502.527 421.558C502.764 421.895 503.001 422.232 503.238 422.57C503.517 422.872 503.836 423.179 504.193 423.49C504.48 423.716 504.807 423.946 505.172 424.18C505.537 424.414 505.96 424.654 506.441 424.901C506.849 425.101 507.336 425.289 507.902 425.467C508.511 425.61 509.105 425.713 509.684 425.775C510.302 425.842 510.923 425.869 511.549 425.859C512.179 425.809 512.695 425.728 513.097 425.616C513.62 425.477 514.084 425.332 514.491 425.181C514.897 425.03 515.246 424.872 515.537 424.709C515.952 424.48 516.328 424.248 516.666 424.012C517.008 423.737 517.331 423.459 517.634 423.18C517.988 422.79 518.329 422.339 518.658 421.829C518.986 421.319 519.227 420.896 519.38 420.562C519.58 420.155 519.754 419.628 519.901 418.981C520.092 418.3 520.218 417.671 520.28 417.093C520.343 416.515 520.351 415.893 520.306 415.225C520.304 414.524 520.248 413.953 520.139 413.512C520.061 413.153 519.916 412.689 519.704 412.121C519.496 411.514 519.258 411.001 518.991 410.583C518.754 410.246 518.496 409.926 518.216 409.623C517.941 409.282 517.625 408.956 517.268 408.644C517.018 408.423 516.711 408.195 516.346 407.961C515.985 407.688 515.562 407.448 515.077 407.24C514.708 407.045 514.219 406.875 513.61 406.732C513.005 406.55 512.393 406.426 511.776 406.36C511.197 406.297 510.593 406.291 509.963 406.34C509.376 406.355 508.862 406.417 508.421 406.525C507.903 406.626 507.438 406.771 507.027 406.96C506.621 407.111 506.253 407.267 505.923 407.426C505.508 407.654 505.13 407.906 504.788 408.181C504.489 408.422 504.188 408.682 503.884 408.961C503.534 409.313 503.193 409.763 502.861 410.312C502.532 410.823 502.292 411.245 502.139 411.579C501.939 411.986 501.743 412.53 501.553 413.211C501.405 413.858 501.3 414.47 501.238 415.048Z" fill="#FFB347"/>
<path d="M587.661 412.93L589.902 392.128C589.972 391.473 590.194 391.048 590.566 390.855C590.981 390.626 591.42 390.537 591.883 390.587C592.307 390.632 592.679 390.809 592.997 391.116C593.358 391.388 593.503 391.852 593.432 392.507L588.078 442.202C588.012 442.818 587.771 443.24 587.356 443.469C586.98 443.701 586.58 443.794 586.155 443.749C585.692 443.699 585.282 443.519 584.925 443.208C584.607 442.901 584.481 442.439 584.548 441.823L587.312 416.166L580.193 415.402L577.59 439.556C577.524 440.172 577.302 440.596 576.926 440.829C576.55 441.061 576.149 441.155 575.725 441.109C575.301 441.063 574.929 440.887 574.611 440.58C574.293 440.273 574.167 439.812 574.233 439.195L579.338 391.812C579.409 391.157 579.63 390.732 580.002 390.539C580.379 390.306 580.779 390.213 581.204 390.258C581.628 390.304 581.999 390.48 582.318 390.787C582.64 391.056 582.766 391.517 582.695 392.172L580.541 412.166L587.661 412.93ZM550.489 398.183L573.178 400.62C573.719 400.678 574.124 400.897 574.396 401.276C574.671 401.618 574.786 402 574.741 402.424C574.695 402.848 574.499 403.216 574.153 403.53C573.811 403.805 573.37 403.914 572.83 403.856L550.141 401.419C549.601 401.361 549.173 401.159 548.859 400.814C548.588 400.434 548.475 400.032 548.521 399.608C548.566 399.185 548.76 398.835 549.102 398.56C549.487 398.251 549.949 398.125 550.489 398.183ZM558.867 435.09C558.404 435.04 557.849 434.942 557.201 434.794C556.596 434.612 556.143 434.466 555.843 434.356C555.543 434.246 555.188 434.091 554.781 433.891C554.411 433.696 554.081 433.504 553.789 433.317C553.462 433.087 553.12 432.817 552.764 432.506C552.445 432.199 552.164 431.915 551.918 431.655C551.643 431.314 551.354 430.913 551.053 430.452C550.751 429.99 550.52 429.595 550.361 429.267C550.171 428.856 549.987 428.389 549.809 427.863C549.674 427.303 549.538 426.762 549.399 426.241C549.302 425.685 549.214 424.876 549.133 423.815C549.095 422.72 549.132 421.653 549.244 420.612C549.356 419.572 549.547 418.521 549.818 417.459C550.127 416.401 550.386 415.63 550.594 415.146C550.841 414.666 551.088 414.186 551.335 413.706C551.624 413.191 551.906 412.754 552.179 412.393C552.405 412.106 552.714 411.769 553.107 411.382C553.504 410.957 553.872 410.627 554.209 410.39C554.504 410.188 554.84 409.971 555.216 409.738C555.636 409.472 556.027 409.28 556.391 409.163C556.716 409.042 557.08 408.925 557.483 408.813C557.924 408.704 558.303 408.628 558.62 408.584C558.937 408.54 559.408 408.513 560.034 408.502C560.702 408.457 561.268 408.459 561.731 408.509C562.194 408.559 562.728 408.675 563.333 408.856C563.942 409 564.397 409.127 564.697 409.237C565.036 409.351 565.409 409.508 565.817 409.708C566.225 409.907 566.556 410.099 566.809 410.282C567.14 410.473 567.462 410.742 567.776 411.087C568.133 411.398 568.434 411.684 568.68 411.944C568.959 412.247 569.228 412.646 569.487 413.142C569.789 413.603 570.02 413.997 570.179 414.326C570.369 414.736 570.551 415.224 570.724 415.788C570.941 416.318 571.099 416.841 571.199 417.359C571.338 417.88 571.427 418.689 571.465 419.784C571.503 420.879 571.466 421.947 571.354 422.987C571.242 424.027 571.051 425.078 570.78 426.14C570.514 427.164 570.255 427.935 570.004 428.453C569.796 428.938 569.527 429.435 569.199 429.945C568.914 430.421 568.634 430.839 568.361 431.2C568.135 431.487 567.826 431.824 567.433 432.21C567.078 432.601 566.73 432.934 566.388 433.209C566.093 433.411 565.738 433.626 565.324 433.854C564.947 434.087 564.575 434.281 564.207 434.436C563.92 434.561 563.556 434.678 563.115 434.786C562.674 434.895 562.276 434.969 561.92 435.009C561.603 435.053 561.13 435.099 560.5 435.149C559.874 435.159 559.33 435.14 558.867 435.09ZM559.216 431.854C559.602 431.896 560.011 431.901 560.444 431.869C560.915 431.842 561.29 431.804 561.568 431.756C561.889 431.674 562.213 431.572 562.538 431.451C562.863 431.33 563.169 431.207 563.456 431.082C563.79 430.884 564.108 430.645 564.411 430.366C564.753 430.091 565.016 429.827 565.199 429.574C565.472 429.214 565.732 428.793 565.979 428.313C566.269 427.799 566.518 427.3 566.726 426.815C566.938 426.293 567.125 425.65 567.285 424.888C567.484 424.13 567.627 423.346 567.714 422.537C567.801 421.728 567.828 420.932 567.796 420.15C567.805 419.332 567.76 418.665 567.66 418.148C567.559 417.63 567.42 417.109 567.243 416.583C567.108 416.023 566.946 415.538 566.756 415.128C566.63 414.842 566.43 414.528 566.154 414.186C565.918 413.849 565.657 413.549 565.373 413.284C565.124 413.063 564.851 412.877 564.555 412.729C564.263 412.542 563.969 412.374 563.673 412.225C563.411 412.119 563.052 412.002 562.598 411.876C562.182 411.753 561.781 411.671 561.395 411.629C561.009 411.588 560.58 411.581 560.109 411.608C559.676 411.64 559.301 411.677 558.984 411.721C558.663 411.804 558.34 411.905 558.015 412.026C557.732 412.113 557.445 412.238 557.154 412.402C556.821 412.6 556.502 412.838 556.199 413.117C555.896 413.397 555.633 413.661 555.411 413.91C555.138 414.27 554.857 414.707 554.567 415.222C554.32 415.702 554.093 416.184 553.884 416.668C553.676 417.153 553.47 417.793 553.268 418.59C553.107 419.352 552.984 420.137 552.896 420.946C552.809 421.755 552.763 422.549 552.757 423.328C552.79 424.111 552.854 424.78 552.951 425.336C553.051 425.853 553.168 426.392 553.303 426.952C553.481 427.478 553.665 427.946 553.855 428.356C554.019 428.646 554.219 428.96 554.456 429.297C554.693 429.634 554.953 429.935 555.237 430.199C555.49 430.382 555.744 430.566 555.997 430.749C556.29 430.936 556.584 431.104 556.88 431.253C557.18 431.363 557.539 431.479 557.955 431.602C558.41 431.729 558.83 431.813 559.216 431.854ZM557.195 389.2L568.54 390.418C569.118 390.48 569.544 390.701 569.815 391.081C570.086 391.461 570.199 391.863 570.153 392.287C570.108 392.71 569.912 393.079 569.566 393.393C569.22 393.706 568.757 393.832 568.179 393.77L556.834 392.552C556.255 392.489 555.811 392.266 555.501 391.882C555.23 391.502 555.117 391.101 555.162 390.677C555.208 390.253 555.404 389.884 555.75 389.571C556.135 389.262 556.616 389.138 557.195 389.2Z" fill="#FFB347"/>
<path d="M626.626 399.695C626.666 400.05 626.682 400.442 626.675 400.87C626.707 401.302 626.757 401.736 626.828 402.172C626.94 402.574 627.073 402.978 627.224 403.384C627.375 403.79 627.617 404.264 627.949 404.806C628.182 405.182 628.432 405.579 628.699 405.997C629.009 406.381 629.392 406.812 629.848 407.29C630.304 407.767 630.745 408.204 631.17 408.601C631.639 408.963 632.107 409.325 632.576 409.687C633.117 410.096 633.697 410.509 634.316 410.926C634.938 411.305 635.638 411.691 636.415 412.087C637.12 412.435 637.804 412.781 638.47 413.126C639.14 413.431 639.792 413.716 640.427 413.979C641.028 414.199 641.646 414.441 642.281 414.704C642.959 414.933 643.541 415.151 644.026 415.359C644.214 415.418 644.395 415.554 644.567 415.768C644.743 415.943 644.849 416.051 644.883 416.094C644.97 416.376 645.018 416.654 645.028 416.928C645.037 417.202 644.987 417.489 644.876 417.788C644.813 418.015 644.672 418.234 644.454 418.445C644.275 418.659 644.143 418.801 644.057 418.87C643.933 418.934 643.732 418.99 643.454 419.039C643.214 419.091 643 419.087 642.811 419.028C642.433 418.909 641.927 418.719 641.292 418.456C640.656 418.193 640.021 417.93 639.386 417.666C638.905 417.42 638.33 417.144 637.66 416.838C637.029 416.537 636.4 416.216 635.773 415.876C635.035 415.485 634.371 415.121 633.783 414.785C633.194 414.449 632.632 414.057 632.094 413.61C631.514 413.197 630.881 412.739 630.193 412.237C629.548 411.7 628.979 411.191 628.484 410.709C627.951 410.223 627.493 409.765 627.11 409.334C626.77 408.869 626.393 408.38 625.98 407.868C625.743 407.531 625.487 407.192 625.211 406.85C624.978 406.475 624.733 406.039 624.474 405.543C624.252 405.792 623.983 406.114 623.667 406.509C623.351 406.904 623.127 407.172 622.995 407.314C622.649 407.627 622.283 407.939 621.899 408.248C621.553 408.562 621.145 408.908 620.675 409.286C620.127 409.656 619.541 410.021 618.917 410.383C618.297 410.706 617.678 411.01 617.062 411.294C616.403 411.613 615.768 411.896 615.156 412.142C614.544 412.388 613.893 412.63 613.204 412.867C612.554 413.109 611.826 413.343 611.021 413.568C610.216 413.794 609.473 413.987 608.792 414.147C608.03 414.338 607.188 414.54 606.268 414.753C605.39 414.932 604.674 415.05 604.122 415.107C603.963 415.129 603.732 415.104 603.427 415.033C603.127 414.922 602.902 414.84 602.751 414.785C602.644 414.695 602.521 414.565 602.384 414.394C602.25 414.185 602.157 413.961 602.105 413.721C602.048 413.521 602.054 413.287 602.122 413.022C602.189 412.756 602.251 412.549 602.306 412.399C602.391 412.33 602.52 412.227 602.691 412.089C602.904 411.917 603.09 411.82 603.249 411.798C603.891 411.634 604.651 411.462 605.529 411.283C606.407 411.105 607.167 410.933 607.81 410.768C608.413 410.599 609.118 410.402 609.923 410.177C610.766 409.956 611.53 409.746 612.215 409.546C612.905 409.309 613.574 409.069 614.225 408.827C614.918 408.551 615.575 408.251 616.195 407.928C616.854 407.609 617.455 407.284 617.998 406.952C618.58 406.625 619.087 406.27 619.518 405.888C620.074 405.441 620.463 405.093 620.685 404.844C620.907 404.595 621.178 404.254 621.498 403.821C621.856 403.392 622.114 402.991 622.271 402.618C622.429 402.245 622.566 401.87 622.685 401.493C622.796 401.194 622.891 400.853 622.971 400.472C623.055 400.052 623.116 399.669 623.153 399.323L606.947 397.582C606.445 397.528 606.059 397.311 605.787 396.932C605.559 396.517 605.465 396.118 605.507 395.732C605.552 395.309 605.729 394.938 606.036 394.62C606.382 394.307 606.806 394.177 607.308 394.231L643.483 398.115C643.985 398.169 644.352 398.384 644.585 398.76C644.856 399.14 644.969 399.541 644.923 399.965C644.882 400.35 644.686 400.719 644.336 401.071C644.028 401.389 643.624 401.521 643.122 401.467L626.626 399.695ZM623.811 427.451L621.832 445.826C621.769 446.404 621.531 446.807 621.116 447.035C620.697 447.302 620.256 447.411 619.793 447.361C619.368 447.315 618.98 447.118 618.627 446.768C618.27 446.457 618.123 446.013 618.185 445.435L620.165 427.059L600.428 424.94C599.849 424.878 599.424 424.657 599.153 424.277C598.92 423.901 598.826 423.501 598.872 423.078C598.918 422.654 599.094 422.283 599.402 421.965C599.748 421.652 600.21 421.526 600.789 421.588L644.025 426.231C644.604 426.293 645.029 426.514 645.3 426.894C645.572 427.274 645.685 427.676 645.639 428.1C645.593 428.523 645.398 428.892 645.052 429.206C644.706 429.519 644.243 429.645 643.664 429.583L623.811 427.451Z" fill="#FFB347"/>
<path d="M664.178 415.886C664.588 416.788 664.962 417.666 665.299 418.52C665.679 419.34 666.057 420.18 666.433 421.039C667.043 422.624 667.579 423.987 668.042 425.128C668.543 426.273 669.081 427.616 669.657 429.159C670.266 430.744 670.794 432.184 671.24 433.479C671.686 434.774 672.107 436.125 672.502 437.531C672.952 438.787 673.361 440.059 673.73 441.346C674.103 442.594 674.403 443.795 674.63 444.949C674.718 445.582 674.636 446.158 674.385 446.677C674.138 447.157 673.756 447.447 673.238 447.547C672.797 447.656 672.357 447.57 671.919 447.289C671.515 447.051 671.229 446.63 671.059 446.027C670.781 444.984 670.521 443.963 670.277 442.962C670.038 441.923 669.758 440.9 669.437 439.891C669.167 438.771 668.827 437.585 668.415 436.332C668.042 435.084 667.631 433.832 667.181 432.576C666.799 431.405 666.382 430.21 665.927 428.992C665.512 427.779 665.073 426.601 664.61 425.461C664.333 424.768 664.024 424.014 663.683 423.198C663.384 422.348 663.058 421.572 662.704 420.872C662.564 421.441 662.406 422.009 662.228 422.574C662.054 423.101 661.861 423.626 661.648 424.149C661.207 425.348 660.744 426.565 660.26 427.799C659.779 428.995 659.306 430.132 658.838 431.212C658.379 432.215 657.876 433.252 657.332 434.324C656.83 435.361 656.293 436.356 655.722 437.307C655.232 438.229 654.579 439.406 653.761 440.838C652.947 442.231 652.197 443.398 651.51 444.337C651.37 444.556 651.173 444.749 650.921 444.917C650.707 445.089 650.502 445.184 650.305 445.201C650.262 445.236 650.048 445.232 649.662 445.191C649.31 445.192 649.044 445.125 648.864 444.988C648.606 444.844 648.398 444.607 648.238 444.278C648.078 443.949 647.991 443.667 647.978 443.432C647.96 443.235 648.004 443.006 648.11 442.745C648.217 442.483 648.361 442.226 648.545 441.973C649.258 441.153 649.855 440.321 650.336 439.476C650.822 438.593 651.416 437.605 652.119 436.511C652.635 435.709 653.148 434.751 653.658 433.637C654.212 432.488 654.707 431.509 655.146 430.699C655.734 429.593 656.248 428.44 656.69 427.24C657.174 426.007 657.654 424.811 658.13 423.654C658.563 422.532 658.97 421.289 659.351 419.927C659.771 418.569 660.186 417.25 660.597 415.969C660.898 414.989 661.211 413.717 661.535 412.154C661.898 410.595 662.2 409.244 662.44 408.101C662.613 407.223 662.802 406.191 663.008 405.005C663.257 403.785 663.458 402.638 663.613 401.563C663.702 401.105 663.897 400.736 664.201 400.457C664.543 400.182 664.982 400.093 665.518 400.189C666.054 400.286 666.457 400.524 666.729 400.904C667.004 401.245 667.115 401.666 667.061 402.167C666.89 403.396 666.676 404.659 666.419 405.956C666.205 407.219 665.981 408.384 665.749 409.45C665.53 410.401 665.283 411.426 665.008 412.527C664.776 413.593 664.499 414.713 664.178 415.886ZM692.281 453.392C692.214 454.008 691.974 454.43 691.559 454.659C691.182 454.891 690.782 454.984 690.358 454.939C689.895 454.889 689.485 454.709 689.128 454.397C688.81 454.09 688.684 453.629 688.75 453.012L694.104 403.318C694.175 402.663 694.396 402.238 694.768 402.044C695.183 401.816 695.622 401.727 696.085 401.777C696.51 401.822 696.881 401.999 697.199 402.306C697.56 402.578 697.705 403.042 697.635 403.697L692.281 453.392ZM682.341 423.916L674.064 423.027C673.563 422.973 673.157 422.754 672.847 422.37C672.537 421.986 672.405 421.582 672.451 421.159C672.496 420.735 672.711 420.368 673.096 420.059C673.481 419.75 673.924 419.622 674.426 419.676L682.702 420.564L684.583 403.113C684.653 402.459 684.875 402.034 685.247 401.84C685.623 401.608 686.023 401.515 686.448 401.56C686.872 401.606 687.244 401.782 687.562 402.089C687.923 402.361 688.068 402.825 687.997 403.48L682.892 450.864C682.826 451.48 682.585 451.902 682.17 452.131C681.794 452.363 681.394 452.456 680.969 452.411C680.545 452.365 680.173 452.189 679.855 451.882C679.537 451.575 679.411 451.113 679.477 450.497L682.341 423.916Z" fill="#FFB347"/>
<path d="M711.876 450.936L713.196 438.686C713.258 438.108 713.499 437.686 713.918 437.419C714.337 437.152 714.778 437.044 715.241 437.094C715.665 437.139 716.035 437.335 716.349 437.68C716.701 438.03 716.847 438.494 716.784 439.071L715.464 451.322L734.044 453.317L735.395 440.778C735.457 440.2 735.698 439.778 736.117 439.511C736.536 439.244 736.958 439.134 737.382 439.179C737.807 439.225 738.195 439.422 738.548 439.772C738.901 440.122 739.046 440.585 738.984 441.163L737.633 453.702L746.372 454.641C746.951 454.703 747.376 454.924 747.648 455.304C747.919 455.684 748.032 456.086 747.986 456.509C747.941 456.933 747.745 457.302 747.399 457.615C747.053 457.929 746.59 458.055 746.011 457.992L702.775 453.349C702.196 453.287 701.771 453.066 701.5 452.686C701.267 452.311 701.173 451.911 701.219 451.487C701.265 451.064 701.441 450.693 701.749 450.375C702.095 450.061 702.557 449.936 703.136 449.998L711.876 450.936ZM707.271 419.228C707.362 418.38 707.558 417.466 707.859 416.485C708.198 415.509 708.468 414.817 708.668 414.409C708.923 413.852 709.303 413.231 709.806 412.544C710.348 411.862 710.833 411.349 711.26 411.005C711.645 410.696 712.151 410.341 712.78 409.941C713.413 409.502 713.956 409.171 714.409 408.947C714.905 408.688 715.519 408.423 716.251 408.151C717.022 407.883 717.707 407.684 718.306 407.553C718.945 407.427 719.679 407.311 720.51 407.205C721.346 407.061 722.196 406.958 723.061 406.895C723.73 406.85 724.649 406.831 725.819 406.84C726.989 406.849 728.172 406.918 729.369 407.046C730.603 407.179 731.793 407.365 732.938 407.605C734.084 407.845 734.978 408.058 735.621 408.244C736.492 408.493 737.301 408.775 738.048 409.089C738.838 409.368 739.531 409.638 740.127 409.896C740.685 410.151 741.293 410.489 741.95 410.911C742.646 411.336 743.209 411.728 743.639 412.086C744.034 412.401 744.494 412.84 745.019 413.403C745.548 413.927 745.948 414.379 746.22 414.759C746.602 415.19 746.965 415.814 747.306 416.63C747.652 417.407 747.911 418.078 748.085 418.642C748.232 419.087 748.348 419.82 748.433 420.842C748.518 421.865 748.515 422.8 748.424 423.647C748.332 424.495 748.134 425.428 747.829 426.447C747.528 427.428 747.259 428.12 747.02 428.523C746.734 428.999 746.338 429.6 745.831 430.325C745.323 431.049 744.836 431.582 744.37 431.921C744.024 432.235 743.537 432.592 742.909 432.992C742.28 433.392 741.737 433.723 741.279 433.986C740.787 434.206 740.156 434.45 739.385 434.718C738.653 434.99 737.985 435.211 737.382 435.38C736.744 435.506 736.007 435.641 735.172 435.785C734.379 435.895 733.531 435.979 732.627 436.038C731.958 436.083 731.039 436.101 729.869 436.093C728.699 436.084 727.497 436.013 726.262 435.881C725.066 435.752 723.895 435.568 722.75 435.328C721.605 435.088 720.71 434.875 720.067 434.689C719.235 434.444 718.424 434.182 717.634 433.902C716.849 433.584 716.158 433.295 715.561 433.036C715.007 432.743 714.382 432.384 713.686 431.958C713.029 431.537 712.484 431.167 712.05 430.847C711.658 430.493 711.198 430.054 710.669 429.53C710.14 429.005 709.721 428.551 709.411 428.167C709.066 427.741 708.702 427.136 708.318 426.355C707.977 425.539 707.738 424.851 707.604 424.291C707.495 423.85 707.379 423.117 707.255 422.09C707.174 421.03 707.18 420.075 707.271 419.228ZM711.149 419.644C711.045 420.607 711.033 421.444 711.113 422.154C711.196 422.825 711.357 423.505 711.595 424.193C711.812 424.723 712.034 425.195 712.263 425.609C712.491 426.024 712.827 426.527 713.271 427.12C713.654 427.551 714.097 427.969 714.599 428.374C715.102 428.778 715.556 429.1 715.959 429.338C716.402 429.58 716.9 429.848 717.454 430.142C718.008 430.435 718.699 430.723 719.527 431.007C720.243 431.24 721.209 431.519 722.423 431.844C723.641 432.131 725.041 432.359 726.623 432.529C728.244 432.703 729.68 432.779 730.931 432.758C732.187 432.698 733.189 432.63 733.939 432.555C734.809 432.453 735.545 432.318 736.149 432.149C736.753 431.98 737.296 431.824 737.78 431.681C738.225 431.534 738.737 431.316 739.314 431.028C739.892 430.739 740.414 430.425 740.88 430.085C741.439 429.6 741.875 429.179 742.187 428.823C742.498 428.466 742.816 428.052 743.14 427.581C743.519 426.959 743.822 426.329 744.046 425.691C744.276 425.014 744.442 424.194 744.546 423.231C744.645 422.306 744.653 421.508 744.569 420.837C744.49 420.127 744.331 419.428 744.093 418.74C743.881 418.171 743.66 417.68 743.432 417.266C743.203 416.851 742.865 416.367 742.417 415.812C742.034 415.382 741.592 414.964 741.089 414.559C740.586 414.154 740.133 413.833 739.729 413.595C739.287 413.352 738.789 413.085 738.235 412.791C737.681 412.498 736.99 412.209 736.161 411.926C735.449 411.654 734.484 411.375 733.266 411.089C732.052 410.763 730.634 410.514 729.014 410.34C727.432 410.17 726.013 410.115 724.757 410.175C723.506 410.196 722.503 410.264 721.749 410.378C720.88 410.479 720.143 410.615 719.539 410.784C718.936 410.953 718.392 411.109 717.908 411.251C717.463 411.398 716.951 411.616 716.374 411.905C715.796 412.194 715.275 412.508 714.809 412.848C714.253 413.294 713.819 413.696 713.508 414.052C713.196 414.409 712.876 414.842 712.548 415.352C712.169 415.974 711.865 416.623 711.636 417.3C711.411 417.938 711.248 418.72 711.149 419.644Z" fill="#FFB347"/>
<path d="M784.424 437.392C784.078 437.705 783.691 438.034 783.264 438.378C782.879 438.687 782.456 438.992 781.994 439.293C781.575 439.56 781.139 439.806 780.685 440.03C780.27 440.258 779.84 440.446 779.395 440.593C778.907 440.774 778.267 440.92 777.474 441.029C776.72 441.143 776.093 441.173 775.591 441.119C775.282 441.086 774.753 440.932 774.002 440.656C773.289 440.385 772.731 440.13 772.327 439.892C771.962 439.658 771.561 439.401 771.123 439.12C770.684 438.839 770.231 438.517 769.763 438.155C769.406 437.844 768.972 437.525 768.461 437.197C767.992 436.835 767.593 436.558 767.262 436.367C766.897 436.133 766.508 435.935 766.096 435.774C765.723 435.617 765.324 435.516 764.9 435.47C764.514 435.429 764.06 435.478 763.537 435.616C763.058 435.721 762.612 435.868 762.202 436.057C761.915 436.183 761.645 436.329 761.393 436.497C761.141 436.664 760.886 436.851 760.63 437.058C760.331 437.298 760.051 437.541 759.79 437.786C759.534 437.992 759.254 438.235 758.951 438.514C758.617 438.712 758.24 438.769 757.82 438.685C757.4 438.601 757.05 438.407 756.77 438.105C756.533 437.767 756.457 437.389 756.541 436.969C756.63 436.511 756.765 436.156 756.949 435.902C757.291 435.627 757.677 435.299 758.109 434.917C758.579 434.538 759.024 434.216 759.443 433.949C759.9 433.686 760.356 433.443 760.809 433.219C761.267 432.956 761.701 432.73 762.112 432.541C762.441 432.381 762.923 432.258 763.557 432.17C764.195 432.043 764.727 432.003 765.151 432.049C765.46 432.082 765.878 432.185 766.406 432.359C766.938 432.494 767.369 432.657 767.7 432.848C767.996 432.997 768.4 433.235 768.911 433.563C769.426 433.852 769.882 434.154 770.277 434.47C770.676 434.746 771.128 435.087 771.63 435.492C772.138 435.858 772.591 436.179 772.99 436.456C773.321 436.647 773.763 436.89 774.317 437.183C774.875 437.438 775.386 437.59 775.849 437.64C776.273 437.685 776.743 437.677 777.257 437.616C777.809 437.558 778.291 437.435 778.702 437.245C779.07 437.089 779.421 436.913 779.754 436.715C780.088 436.517 780.443 436.302 780.819 436.069C781.157 435.833 781.454 435.611 781.71 435.405C781.967 435.199 782.245 434.975 782.544 434.735C782.877 434.537 783.233 434.497 783.611 434.615C784.031 434.7 784.362 434.891 784.603 435.19C784.878 435.531 784.991 435.933 784.941 436.395C784.895 436.819 784.723 437.151 784.424 437.392Z" fill="#FFB347"/>
<path d="M819.738 441.184C819.391 441.497 819.005 441.826 818.577 442.17C818.193 442.479 817.77 442.785 817.308 443.086C816.889 443.352 816.452 443.598 815.999 443.822C815.584 444.05 815.154 444.238 814.709 444.385C814.221 444.566 813.581 444.712 812.788 444.822C812.034 444.935 811.406 444.965 810.905 444.912C810.596 444.878 810.066 444.724 809.315 444.449C808.603 444.177 808.045 443.922 807.641 443.684C807.276 443.45 806.874 443.193 806.436 442.912C805.998 442.631 805.545 442.31 805.076 441.948C804.72 441.636 804.286 441.317 803.774 440.989C803.306 440.627 802.906 440.351 802.576 440.159C802.211 439.925 801.822 439.728 801.41 439.566C801.037 439.409 800.638 439.308 800.213 439.263C799.827 439.221 799.373 439.27 798.851 439.409C798.371 439.513 797.926 439.66 797.515 439.85C797.229 439.975 796.959 440.121 796.707 440.289C796.454 440.457 796.2 440.644 795.944 440.85C795.645 441.091 795.365 441.333 795.104 441.578C794.848 441.784 794.568 442.027 794.265 442.306C793.931 442.504 793.554 442.561 793.134 442.477C792.713 442.393 792.363 442.2 792.084 441.897C791.847 441.56 791.771 441.181 791.855 440.762C791.943 440.303 792.079 439.948 792.262 439.695C792.604 439.42 792.991 439.091 793.423 438.709C793.893 438.331 794.337 438.008 794.756 437.741C795.214 437.479 795.67 437.235 796.123 437.011C796.581 436.749 797.015 436.523 797.426 436.333C797.755 436.173 798.237 436.05 798.871 435.962C799.509 435.836 800.04 435.795 800.465 435.841C800.773 435.874 801.192 435.977 801.719 436.151C802.251 436.286 802.683 436.449 803.013 436.641C803.31 436.789 803.713 437.027 804.224 437.355C804.74 437.644 805.195 437.947 805.591 438.262C805.99 438.538 806.441 438.879 806.944 439.284C807.451 439.65 807.904 439.972 808.304 440.248C808.635 440.44 809.077 440.682 809.631 440.975C810.189 441.23 810.699 441.382 811.163 441.432C811.587 441.478 812.056 441.47 812.57 441.408C813.123 441.35 813.605 441.227 814.016 441.037C814.384 440.882 814.734 440.705 815.068 440.507C815.401 440.309 815.756 440.094 816.133 439.861C816.471 439.625 816.768 439.404 817.024 439.197C817.281 438.991 817.558 438.768 817.857 438.527C818.191 438.329 818.547 438.289 818.924 438.408C819.345 438.492 819.675 438.683 819.916 438.982C820.192 439.323 820.305 439.725 820.255 440.187C820.209 440.611 820.037 440.943 819.738 441.184Z" fill="#FFB347"/>
<path d="M142.842 399.651L820.702 472.443L819.457 484L141.597 411.208L142.842 399.651Z" fill="#FFB347"/>
<path d="M453.15 105.272C449.113 147.483 340.498 180.714 215.537 168.606C90.5759 156.498 -3.41182 103.636 0.625292 61.4263C4.66241 19.2162 113.793 -9.30514 238.755 2.80262C363.716 14.9104 457.187 63.0622 453.15 105.272Z" fill="#FF4B0E"/>
<path d="M132.86 45.386L164.038 48.6441L159.551 92.138L128.374 88.8798L132.86 45.386ZM154.051 55.1185L141.313 53.7873L138.353 82.4763L151.092 83.8075L154.051 55.1185ZM173.112 43.4347L182.543 44.4203L175.776 110.015L166.345 109.03L173.112 43.4347ZM177.952 68.9291L189.423 70.1279L188.627 77.8491L177.155 76.6503L177.952 68.9291Z" fill="white"/>
<path d="M209.704 58.2852L217.305 59.0795L217.057 61.488C216.672 65.2187 215.626 68.6895 213.92 71.9002C212.265 75.0686 209.95 77.7385 206.976 79.9098C204.048 82.086 200.435 83.5462 196.138 84.2904L192.534 76.4674C196.202 75.8483 199.229 74.7804 201.614 73.2635C204.052 71.7043 205.906 69.8217 207.177 67.6155C208.448 65.4094 209.207 63.1021 209.456 60.6937L209.704 58.2852ZM211.464 58.4691L219.065 59.2634L218.816 61.6718C218.587 63.8914 218.877 66.1413 219.685 68.4215C220.545 70.6594 221.99 72.7436 224.02 74.6741C226.049 76.6046 228.752 78.2236 232.126 79.5309L227.151 86.3858C223.139 84.8209 219.892 82.7393 217.409 80.1409C214.931 77.4953 213.175 74.5194 212.141 71.2131C211.154 67.9118 210.845 64.4666 211.215 60.8775L211.464 58.4691ZM197.356 52.4839L232.404 56.1466L231.644 63.5136L196.596 59.8509L197.356 52.4839ZM210.859 47.093L220.219 48.0712L219.189 58.0592L209.828 57.081L210.859 47.093ZM238.137 50.23L247.497 51.2082L243.536 89.6017L234.176 88.6236L238.137 50.23ZM243.392 66.1733L254.582 67.3427L253.779 75.1348L242.588 73.9654L243.392 66.1733ZM200.883 87.9368L243.251 92.3644L240.803 116.095L198.435 111.667L200.883 87.9368ZM233.342 98.7753L209.343 96.2673L208.422 105.193L232.422 107.701L233.342 98.7753Z" fill="white"/>
<path d="M307.884 57.4471L316.752 58.3738L309.985 123.969L301.117 123.042L307.884 57.4471ZM296.759 81.846L307.598 82.9786L306.816 90.5582L295.977 89.4255L296.759 81.846ZM293.198 57.0581L301.925 57.9701L295.59 119.386L286.863 118.474L293.198 57.0581ZM262.792 60.1098L272.153 61.088L268.244 98.9857L258.883 98.0076L262.792 60.1098ZM259.256 94.3949L263.76 94.8656C266.904 95.1941 270.292 95.4527 273.924 95.6413C277.608 95.7876 281.509 95.6702 285.627 95.2891L285.638 103.453C281.338 103.767 277.298 103.846 273.52 103.69C269.742 103.534 266.211 103.284 262.927 102.941L258.423 102.47L259.256 94.3949Z" fill="white"/>
<path d="M325.28 102.31L327.874 69.0884L338.183 70.1657L333.94 103.215L325.28 102.31ZM327.837 119.953C326.279 119.79 325.004 119.133 324.011 117.98C323.044 116.807 322.639 115.459 322.796 113.937C322.953 112.415 323.623 111.192 324.807 110.267C326.016 109.321 327.399 108.93 328.957 109.092C330.515 109.255 331.778 109.923 332.745 111.096C333.738 112.249 334.156 113.586 333.999 115.108C333.842 116.63 333.158 117.864 331.949 118.81C330.766 119.735 329.395 120.116 327.837 119.953Z" fill="white"/>
<path d="M634.386 9.68635L661.207 100.348L729.2 17.926L712.676 109.482L816.333 41.9775L757.803 127.011L888.726 79.8923L792.931 151.515L940.513 128.599L815.214 181.007L967.5 184.151L822.848 213.1L967.5 242.048L815.214 245.192L940.513 297.601L792.931 274.685L888.726 346.307L757.803 299.188L816.333 384.222L712.676 316.717L729.2 408.273L661.207 325.852L634.386 416.513L607.565 325.852L539.572 408.273L556.096 316.717L452.439 384.222L510.97 299.188L380.047 346.307L475.842 274.685L328.259 297.601L453.558 245.192L301.273 242.048L445.924 213.1L301.273 184.151L453.558 181.007L328.259 128.599L475.842 151.515L380.047 79.8923L510.97 127.011L452.439 41.9775L556.096 109.482L539.572 17.926L607.565 100.348L634.386 9.68635Z" fill="#00FF7F"/>
<path d="M504.719 190.347C514.623 190.347 522.001 195.341 522.051 202.909C522.001 209.82 516.164 214.487 507.902 215.42V223.24H525.841V228.537H483.747V223.24H501.484V215.37C493.248 214.487 487.436 209.795 487.436 202.909C487.436 195.341 494.814 190.347 504.719 190.347ZM504.719 195.493C498.301 195.493 493.803 198.318 493.803 202.909C493.803 207.752 498.301 210.476 504.719 210.476C511.187 210.476 515.634 207.752 515.684 202.909C515.634 198.318 511.187 195.493 504.719 195.493Z" fill="#1B1B1B"/>
<path d="M565.144 197.258V202.354H533.156V188.531H539.574V197.258H565.144ZM569.995 205.431V210.527H527.901V205.431H569.995ZM564.942 213.301V225.51H539.271V228.436H566.357V233.38H532.803V220.869H558.524V218.246H532.702V213.301H564.942Z" fill="#1B1B1B"/>
<path d="M622.02 187.976V211.233H615.602V187.976H622.02ZM622.07 213.201V225.662H597.612V228.487H623.334V233.582H591.296V220.869H615.653V218.195H591.195V213.201H622.07ZM601.2 192.516C601.15 198.066 604.485 203.413 612.014 205.583L608.881 210.527C603.601 208.988 599.962 205.81 597.916 201.749C595.793 206.188 592.029 209.72 586.546 211.334L583.362 206.289C591.043 204.019 594.479 198.217 594.479 192.516V188.985H601.2V192.516Z" fill="#1B1B1B"/>
<path d="M667.639 187.976V233.885H661.474V210.88H657.684V231.665H651.62V188.732H657.684V205.684H661.474V187.976H667.639ZM649.346 193.172V198.368H646.365V217.438C647.552 217.312 648.689 217.186 649.75 217.035L650.104 221.727C643.029 223.24 633.681 223.391 627.971 223.391L627.263 218.094L631.154 218.044V198.368H628.122V193.172H649.346ZM636.966 217.943L640.604 217.842V198.368H636.966V217.943Z" fill="#1B1B1B"/>
<path d="M697.227 189.842C703.948 189.842 708.799 193.626 708.799 199.176C708.799 203.666 705.489 207.096 700.562 208.156V211.485C704.15 211.284 707.763 210.956 711.124 210.476L711.629 215.168C702.179 216.833 691.618 217.035 683.937 217.035L683.28 211.939C686.464 211.939 690.178 211.914 694.094 211.788V208.206C689.016 207.197 685.604 203.741 685.655 199.176C685.604 193.626 690.456 189.842 697.227 189.842ZM697.227 194.686C693.943 194.736 691.618 196.3 691.668 199.176C691.618 201.95 693.943 203.615 697.227 203.615C700.512 203.615 702.735 201.95 702.735 199.176C702.735 196.3 700.512 194.736 697.227 194.686ZM720.169 188.026V202.455H726.031V207.802H720.169V223.038H713.701V188.026H720.169ZM721.736 227.881V233.027H689.344V219.961H695.812V227.881H721.736Z" fill="#1B1B1B"/>
<path d="M769.679 223.492V228.79H727.585V223.492H738.349V216.48H732.437V201.042H758.461V196.098H732.386V190.952H764.828V206.188H738.905V211.284H765.889V216.48H759.371V223.492H769.679ZM744.615 223.492H753.054V216.48H744.615V223.492Z" fill="#1B1B1B"/>
<path d="M782.25 192.718L781.593 218.296H775.125L774.468 192.718H782.25ZM778.409 229.698C776.034 229.698 774.114 227.781 774.165 225.46C774.114 223.139 776.034 221.273 778.409 221.273C780.633 221.273 782.604 223.139 782.604 225.46C782.604 227.781 780.633 229.698 778.409 229.698Z" fill="#1B1B1B"/>
</svg>
