<svg width="63" height="64" viewBox="0 0 63 64" fill="none" xmlns="http://www.w3.org/2000/svg">
<path fill-rule="evenodd" clip-rule="evenodd" d="M33.6575 1.98956C33.427 -0.663185 29.573 -0.663186 29.3425 1.98956C29.1431 4.28483 26.002 4.7393 25.1681 2.59353C24.2043 0.113575 20.5064 1.20623 21.028 3.81685C21.4792 6.07568 18.5926 7.40227 17.1917 5.57984C15.5727 3.47359 12.3304 5.57038 13.5618 7.92738C14.6272 9.96676 12.2289 12.058 10.3745 10.7066C8.23136 9.14463 5.70749 12.0757 7.54883 13.9881C9.14205 15.6428 7.42638 18.3293 5.26877 17.5583C2.77514 16.6673 1.17411 20.1952 3.47628 21.5081C5.46822 22.6441 4.57417 25.7081 2.28812 25.5801C-0.353973 25.4321 -0.902463 29.271 1.67404 29.878C3.90334 30.4033 3.90334 33.5967 1.67403 34.122C-0.902466 34.729 -0.353971 38.5679 2.28812 38.4199C4.57417 38.2919 5.46823 41.3559 3.47628 42.4919C1.17411 43.8048 2.77514 47.3327 5.26877 46.4417C7.42638 45.6707 9.14205 48.3572 7.54884 50.0119C5.70749 51.9243 8.23136 54.8554 10.3745 53.2934C12.2289 51.942 14.6272 54.0332 13.5618 56.0726C12.3304 58.4296 15.5727 60.5264 17.1917 58.4202C18.5926 56.5977 21.4792 57.9243 21.028 60.1831C20.5064 62.7938 24.2043 63.8864 25.1681 61.4065C26.002 59.2607 29.1431 59.7152 29.3425 62.0104C29.573 64.6632 33.427 64.6632 33.6575 62.0104C33.8569 59.7152 36.998 59.2607 37.8319 61.4065C38.7957 63.8864 42.4936 62.7938 41.972 60.1831C41.5208 57.9243 44.4074 56.5977 45.8083 58.4202C47.4273 60.5264 50.6696 58.4296 49.4382 56.0726C48.3728 54.0332 50.7711 51.942 52.6255 53.2934C54.7686 54.8554 57.2925 51.9243 55.4512 50.0119C53.8579 48.3572 55.5736 45.6707 57.7312 46.4417C60.2249 47.3327 61.8259 43.8048 59.5237 42.4919C57.5318 41.3559 58.4258 38.2919 60.7119 38.4199C63.354 38.5679 63.9025 34.729 61.326 34.122C59.0967 33.5967 59.0967 30.4033 61.326 29.878C63.9025 29.271 63.354 25.4321 60.7119 25.5801C58.4258 25.7081 57.5318 22.6441 59.5237 21.5081C61.8259 20.1952 60.2249 16.6673 57.7312 17.5583C55.5736 18.3293 53.858 15.6428 55.4512 13.9881C57.2925 12.0757 54.7686 9.14463 52.6255 10.7066C50.7711 12.058 48.3728 9.96676 49.4382 7.92738C50.6696 5.57037 47.4273 3.47359 45.8083 5.57984C44.4074 7.40227 41.5208 6.07568 41.972 3.81685C42.4936 1.20623 38.7957 0.113577 37.8319 2.59353C36.998 4.7393 33.8569 4.28483 33.6575 1.98956ZM44.1024 30.4274C43.2392 29.9127 42.1248 30.1996 41.6133 31.0682C41.1018 31.9369 41.3869 33.0583 42.2501 33.573C43.6869 34.4298 43.9598 35.0903 44.0014 35.353C44.0379 35.5834 43.9803 36.0644 43.2415 36.8139C41.7283 38.3489 38.4065 39.8707 34.4227 40.5948C30.4779 41.3118 26.3493 41.1592 23.3417 39.8181C21.8654 39.1598 20.7042 38.2373 19.9194 37.0293C19.1392 35.8285 18.6506 34.2226 18.7142 32.0542C18.7439 31.045 17.9548 30.2026 16.9519 30.1728C15.949 30.143 15.112 30.937 15.0823 31.9463C15.0001 34.7483 15.6339 37.115 16.8782 39.0302C18.1179 40.9383 19.8833 42.2752 21.8697 43.161C25.7875 44.908 30.7285 44.9818 35.0685 44.193C39.3694 43.4112 43.5478 41.6949 45.821 39.389C46.9755 38.2179 47.8827 36.6277 47.5896 34.7773C47.3016 32.9592 45.9503 31.5294 44.1024 30.4274ZM29.5528 24.1654C29.5528 25.7881 28.2456 27.1036 26.6331 27.1036C25.0205 27.1036 23.7133 25.7881 23.7133 24.1654C23.7133 22.5427 25.0205 21.2272 26.6331 21.2272C28.2456 21.2272 29.5528 22.5427 29.5528 24.1654ZM37.3399 27.1036C38.9525 27.1036 40.2597 25.7881 40.2597 24.1654C40.2597 22.5427 38.9525 21.2272 37.3399 21.2272C35.7274 21.2272 34.4202 22.5427 34.4202 24.1654C34.4202 25.7881 35.7274 27.1036 37.3399 27.1036Z" fill="url(#paint0_linear_114_531)"/>
<defs>
<linearGradient id="paint0_linear_114_531" x1="31.5" y1="0" x2="31.5" y2="64" gradientUnits="userSpaceOnUse">
<stop stop-color="#FF4B0E"/>
<stop offset="0.95" stop-color="#FF7E3A"/>
</linearGradient>
</defs>
</svg>
