<svg width="716" height="722" viewBox="0 0 716 722" fill="none" xmlns="http://www.w3.org/2000/svg">
<path fill-rule="evenodd" clip-rule="evenodd" d="M382.52 22.4447C379.901 -7.48156 336.099 -7.48157 333.48 22.4447C331.214 48.3382 295.515 53.4652 286.038 29.2583C275.084 1.28126 233.057 13.6078 238.984 43.0589C244.113 68.5412 211.307 83.5068 195.385 62.9476C176.985 39.1864 140.136 62.8408 154.131 89.4307C166.239 112.438 138.982 136.029 117.907 120.783C93.5501 103.163 64.8661 136.229 85.7931 157.804C103.9 176.471 84.4013 206.778 59.88 198.08C31.5396 188.028 13.3438 227.827 39.5082 242.638C62.1468 255.454 51.9858 290.02 26.0047 288.575C-4.02293 286.906 -10.2566 330.213 19.0256 337.062C44.3618 342.987 44.3617 379.013 19.0255 384.938C-10.2566 391.787 -4.02291 435.094 26.0047 433.425C51.9858 431.98 62.1468 466.546 39.5082 479.362C13.3438 494.173 31.5397 533.972 59.88 523.92C84.4014 515.222 103.9 545.529 85.7931 564.196C64.8661 585.771 93.5501 618.837 117.907 601.217C138.982 585.971 166.239 609.562 154.131 632.569C140.136 659.159 176.985 682.814 195.385 659.052C211.307 638.493 244.113 653.459 238.984 678.941C233.057 708.392 275.084 720.719 286.038 692.742C295.515 668.535 331.214 673.662 333.48 699.555C336.099 729.482 379.901 729.482 382.52 699.555C384.786 673.662 420.485 668.535 429.962 692.742C440.916 720.719 482.943 708.392 477.016 678.941C471.887 653.459 504.693 638.493 520.615 659.052C539.015 682.814 575.864 659.159 561.869 632.569C549.761 609.562 577.018 585.971 598.093 601.217C622.45 618.837 651.134 585.771 630.207 564.196C612.1 545.529 631.599 515.222 656.12 523.92C684.46 533.972 702.656 494.173 676.492 479.362C653.853 466.546 664.014 431.98 689.995 433.425C720.023 435.094 726.257 391.787 696.974 384.938C671.638 379.013 671.638 342.987 696.974 337.062C726.257 330.213 720.023 286.906 689.995 288.575C664.014 290.02 653.853 255.454 676.492 242.638C702.656 227.827 684.46 188.028 656.12 198.08C631.599 206.778 612.1 176.471 630.207 157.804C651.134 136.229 622.45 103.163 598.093 120.783C577.018 136.029 549.761 112.438 561.869 89.4307C575.864 62.8408 539.015 39.1864 520.615 62.9476C504.693 83.5068 471.887 68.5412 477.016 43.0589C482.943 13.6078 440.916 1.28129 429.962 29.2583C420.485 53.4652 384.786 48.3382 382.52 22.4447ZM501.227 343.259C491.417 337.453 478.752 340.689 472.938 350.488C467.125 360.288 470.365 372.939 480.175 378.746C496.505 388.411 499.606 395.862 500.079 398.826C500.494 401.425 499.84 406.852 491.443 415.306C474.245 432.623 436.493 449.791 391.216 457.96C346.383 466.049 299.462 464.327 265.281 449.198C248.502 441.771 235.305 431.364 226.385 417.737C217.519 404.19 211.966 386.073 212.689 361.611C213.025 350.226 204.058 340.723 192.66 340.387C181.262 340.051 171.749 349.008 171.412 360.394C170.477 392.004 177.68 418.703 191.822 440.309C205.911 461.835 225.976 476.918 248.551 486.91C293.078 506.618 349.232 507.451 398.556 498.552C447.437 489.733 494.924 470.371 520.76 444.357C533.88 431.146 544.191 413.206 540.859 392.332C537.586 371.821 522.229 355.691 501.227 343.259ZM335.87 272.616C335.87 290.922 321.014 305.762 302.687 305.762C284.36 305.762 269.503 290.922 269.503 272.616C269.503 254.31 284.36 239.469 302.687 239.469C321.014 239.469 335.87 254.31 335.87 272.616ZM424.371 305.762C442.698 305.762 457.555 290.922 457.555 272.616C457.555 254.31 442.698 239.469 424.371 239.469C406.045 239.469 391.188 254.31 391.188 272.616C391.188 290.922 406.045 305.762 424.371 305.762Z" fill="#FAFAFA"/>
</svg>
