<svg width="12" height="12" viewBox="0 0 12 12" fill="none" xmlns="http://www.w3.org/2000/svg">
<path fill-rule="evenodd" clip-rule="evenodd" d="M6.41095 0.373042C6.36705 -0.124347 5.63295 -0.124347 5.58905 0.373042C5.55107 0.803405 4.95277 0.888618 4.79393 0.486287C4.61035 0.0212953 3.90598 0.226169 4.00533 0.71566C4.09129 1.13919 3.54145 1.38793 3.27462 1.04622C2.96622 0.651298 2.34866 1.04445 2.5832 1.48638C2.78613 1.86877 2.32931 2.26087 1.9761 2.00748C1.56788 1.71462 1.08714 2.26419 1.43787 2.62277C1.74134 2.93303 1.41455 3.43675 1.00358 3.29219C0.528597 3.12512 0.223639 3.78659 0.662149 4.03277C1.04157 4.24577 0.871271 4.82028 0.435832 4.79627C-0.0674234 4.76852 -0.171898 5.48831 0.318864 5.60213C0.743493 5.70062 0.743492 6.29938 0.318864 6.39787C-0.171898 6.51169 -0.0674231 7.23148 0.435833 7.20373C0.871271 7.17972 1.04157 7.75423 0.662149 7.96723C0.22364 8.21341 0.528598 8.87488 1.00358 8.70781C1.41455 8.56325 1.74134 9.06697 1.43787 9.37723C1.08714 9.73581 1.56788 10.2854 1.9761 9.99252C2.32931 9.73913 2.78613 10.1312 2.5832 10.5136C2.34866 10.9556 2.96622 11.3487 3.27462 10.9538C3.54145 10.6121 4.09129 10.8608 4.00533 11.2843C3.90598 11.7738 4.61035 11.9787 4.79393 11.5137C4.95277 11.1114 5.55107 11.1966 5.58905 11.627C5.63295 12.1243 6.36705 12.1243 6.41095 11.627C6.44893 11.1966 7.04723 11.1114 7.20607 11.5137C7.38965 11.9787 8.09402 11.7738 7.99467 11.2843C7.90871 10.8608 8.45855 10.6121 8.72538 10.9538C9.03378 11.3487 9.65134 10.9556 9.4168 10.5136C9.21387 10.1312 9.67069 9.73913 10.0239 9.99252C10.4321 10.2854 10.9129 9.73581 10.5621 9.37723C10.2587 9.06697 10.5855 8.56325 10.9964 8.70781C11.4714 8.87488 11.7764 8.21341 11.3378 7.96723C10.9584 7.75423 11.1287 7.17972 11.5642 7.20373C12.0674 7.23148 12.1719 6.51169 11.6811 6.39787C11.2565 6.29938 11.2565 5.70062 11.6811 5.60213C12.1719 5.48831 12.0674 4.76852 11.5642 4.79627C11.1287 4.82028 10.9584 4.24577 11.3379 4.03277C11.7764 3.78659 11.4714 3.12512 10.9964 3.29219C10.5855 3.43675 10.2587 2.93303 10.5621 2.62277C10.9129 2.26419 10.4321 1.71462 10.0239 2.00748C9.67069 2.26087 9.21387 1.86877 9.4168 1.48638C9.65134 1.04445 9.03378 0.651297 8.72538 1.04622C8.45855 1.38792 7.90871 1.13919 7.99467 0.71566C8.09402 0.226169 7.38965 0.0212958 7.20607 0.486287C7.04723 0.888618 6.44893 0.803405 6.41095 0.373042ZM8.40045 5.70514C8.23604 5.60863 8.02377 5.66242 7.92634 5.82529C7.82891 5.98816 7.88321 6.19843 8.04763 6.29494C8.32131 6.45559 8.37329 6.57943 8.38122 6.62868C8.38817 6.67189 8.3772 6.76208 8.23647 6.9026C7.94824 7.19042 7.31553 7.47576 6.5567 7.61153C5.80531 7.74596 5.01891 7.71735 4.44604 7.46589C4.16484 7.34246 3.94366 7.16949 3.79417 6.943C3.64556 6.71785 3.5525 6.41673 3.56462 6.01016C3.57026 5.82093 3.41997 5.66299 3.22894 5.6574C3.0379 5.65182 2.87847 5.80069 2.87282 5.98992C2.85716 6.5153 2.97788 6.95905 3.2149 7.31816C3.45103 7.67593 3.7873 7.92661 4.16566 8.09268C4.91191 8.42025 5.85304 8.43409 6.67971 8.28618C7.49894 8.13961 8.29481 7.8178 8.72781 7.38543C8.94771 7.16585 9.12052 6.86769 9.06468 6.52075C9.00982 6.17986 8.75244 5.91176 8.40045 5.70514ZM5.62911 4.53101C5.62911 4.83527 5.38012 5.08192 5.07296 5.08192C4.76581 5.08192 4.51682 4.83527 4.51682 4.53101C4.51682 4.22675 4.76581 3.9801 5.07296 3.9801C5.38012 3.9801 5.62911 4.22675 5.62911 4.53101ZM7.11237 5.08192C7.41952 5.08192 7.66852 4.83527 7.66852 4.53101C7.66852 4.22675 7.41952 3.9801 7.11237 3.9801C6.80522 3.9801 6.55622 4.22675 6.55622 4.53101C6.55622 4.83527 6.80522 5.08192 7.11237 5.08192Z" fill="#FAFAFA"/>
</svg>
