<svg width="24" height="24" viewBox="0 0 24 24" fill="none" xmlns="http://www.w3.org/2000/svg">
<path fill-rule="evenodd" clip-rule="evenodd" d="M12.8219 0.746084C12.7341 -0.248694 11.2659 -0.248695 11.1781 0.746084C11.1021 1.60681 9.90554 1.77724 9.58785 0.972574C9.22069 0.0425905 7.81196 0.452337 8.01065 1.43132C8.18257 2.27838 7.0829 2.77585 6.54923 2.09244C5.93245 1.3026 4.69731 2.08889 5.16639 2.97277C5.57226 3.73754 4.65862 4.52175 3.9522 4.01496C3.13576 3.42924 2.17428 4.52838 2.87575 5.24555C3.48268 5.86607 2.8291 6.87349 2.00715 6.58438C1.05719 6.25023 0.447278 7.57318 1.3243 8.06553C2.08313 8.49153 1.74254 9.64055 0.871664 9.59254C-0.134847 9.53704 -0.343795 10.9766 0.637729 11.2043C1.48699 11.4012 1.48698 12.5988 0.637727 12.7957C-0.343797 13.0234 -0.134846 14.463 0.871665 14.4075C1.74254 14.3594 2.08313 15.5085 1.3243 15.9345C0.44728 16.4268 1.0572 17.7498 2.00715 17.4156C2.8291 17.1265 3.48268 18.1339 2.87575 18.7545C2.17428 19.4716 3.13576 20.5708 3.9522 19.985C4.65862 19.4783 5.57226 20.2625 5.16639 21.0272C4.69731 21.9111 5.93245 22.6974 6.54923 21.9076C7.0829 21.2241 8.18257 21.7216 8.01065 22.5687C7.81196 23.5477 9.22069 23.9574 9.58785 23.0274C9.90554 22.2228 11.1021 22.3932 11.1781 23.2539C11.2659 24.2487 12.7341 24.2487 12.8219 23.2539C12.8979 22.3932 14.0945 22.2228 14.4121 23.0274C14.7793 23.9574 16.188 23.5477 15.9893 22.5687C15.8174 21.7216 16.9171 21.2242 17.4508 21.9076C18.0676 22.6974 19.3027 21.9111 18.8336 21.0272C18.4277 20.2625 19.3414 19.4782 20.0478 19.985C20.8642 20.5708 21.8257 19.4716 21.1243 18.7545C20.5173 18.1339 21.1709 17.1265 21.9928 17.4156C22.9428 17.7498 23.5527 16.4268 22.6757 15.9345C21.9169 15.5085 22.2575 14.3594 23.1283 14.4075C24.1348 14.463 24.3438 13.0234 23.3623 12.7957C22.513 12.5988 22.513 11.4012 23.3623 11.2043C24.3438 10.9766 24.1348 9.53704 23.1283 9.59254C22.2575 9.64055 21.9169 8.49153 22.6757 8.06553C23.5527 7.57318 22.9428 6.25023 21.9928 6.58438C21.1709 6.87349 20.5173 5.86607 21.1243 5.24555C21.8257 4.52838 20.8642 3.42924 20.0478 4.01496C19.3414 4.52175 18.4277 3.73753 18.8336 2.97277C19.3027 2.08889 18.0676 1.30259 17.4508 2.09244C16.9171 2.77585 15.8174 2.27838 15.9893 1.43132C16.188 0.452337 14.7793 0.0425915 14.4121 0.972575C14.0945 1.77724 12.8979 1.60681 12.8219 0.746084ZM16.8009 11.4103C16.4721 11.2173 16.0475 11.3248 15.8527 11.6506C15.6578 11.9763 15.7664 12.3969 16.0953 12.5899C16.6426 12.9112 16.7466 13.1589 16.7624 13.2574C16.7763 13.3438 16.7544 13.5242 16.4729 13.8052C15.8965 14.3808 14.6311 14.9515 13.1134 15.2231C11.6106 15.4919 10.0378 15.4347 8.89209 14.9318C8.32968 14.6849 7.88732 14.339 7.58834 13.886C7.29113 13.4357 7.10499 12.8335 7.12923 12.0203C7.14052 11.6419 6.83994 11.326 6.45787 11.3148C6.07581 11.3036 5.75693 11.6014 5.74565 11.9798C5.71432 13.0306 5.95576 13.9181 6.42979 14.6363C6.90205 15.3519 7.57461 15.8532 8.33132 16.1854C9.82383 16.8405 11.7061 16.8682 13.3594 16.5724C14.9979 16.2792 16.5896 15.6356 17.4556 14.7709C17.8954 14.3317 18.241 13.7354 18.1294 13.0415C18.0196 12.3597 17.5049 11.8235 16.8009 11.4103ZM11.2582 9.06202C11.2582 9.67053 10.7602 10.1638 10.1459 10.1638C9.53163 10.1638 9.03364 9.67053 9.03364 9.06202C9.03364 8.4535 9.53163 7.9602 10.1459 7.9602C10.7602 7.9602 11.2582 8.4535 11.2582 9.06202ZM14.2247 10.1638C14.839 10.1638 15.337 9.67053 15.337 9.06202C15.337 8.4535 14.839 7.9602 14.2247 7.9602C13.6104 7.9602 13.1124 8.4535 13.1124 9.06202C13.1124 9.67053 13.6104 10.1638 14.2247 10.1638Z" fill="url(#paint0_linear_90_1644)"/>
<defs>
<linearGradient id="paint0_linear_90_1644" x1="12" y1="0" x2="12" y2="24" gradientUnits="userSpaceOnUse">
<stop stop-color="#FF4B0E"/>
<stop offset="0.95" stop-color="#FF7E3A"/>
</linearGradient>
</defs>
</svg>
